<?xml version="1.0" encoding="UTF-8" standalone="no"?>
<!-- Created with Inkscape (http://www.inkscape.org/) -->

<svg
   width="78.262222mm"
   height="75.823433mm"
   viewBox="0 0 78.262222 75.823433"
   version="1.1"
   id="svg1"
   inkscape:version="1.4 (86a8ad7, 2024-10-11)"
   sodipodi:docname="Lenguajes.svg"
   xmlns:inkscape="http://www.inkscape.org/namespaces/inkscape"
   xmlns:sodipodi="http://sodipodi.sourceforge.net/DTD/sodipodi-0.dtd"
   xmlns="http://www.w3.org/2000/svg"
   xmlns:svg="http://www.w3.org/2000/svg">
  <sodipodi:namedview
     id="namedview1"
     pagecolor="#ffffff"
     bordercolor="#000000"
     borderopacity="0.25"
     inkscape:showpageshadow="2"
     inkscape:pageopacity="0.0"
     inkscape:pagecheckerboard="0"
     inkscape:deskcolor="#d1d1d1"
     inkscape:document-units="mm"
     inkscape:zoom="0.70555556"
     inkscape:cx="390.47244"
     inkscape:cy="86.456692"
     inkscape:window-width="1920"
     inkscape:window-height="1005"
     inkscape:window-x="-9"
     inkscape:window-y="-9"
     inkscape:window-maximized="1"
     inkscape:current-layer="layer1" />
  <defs
     id="defs1" />
  <g
     inkscape:label="Capa 1"
     inkscape:groupmode="layer"
     id="layer1"
     transform="translate(-58.185681,-69.652693)">
    <path
       d="m -7.5487358,141.25798 q -0.3367464,0 -0.5893062,-0.0561 -0.2525598,-0.0421 -0.4489952,-0.12628 v -1.06637 q 0.2244976,0.0561 0.4770574,0.0982 0.2525598,0.0421 0.5331818,0.0421 0.3507775,0 0.6594617,-0.14031 0.3227153,-0.14031 0.5191507,-0.49109 0.1964354,-0.35077 0.1964354,-0.98217 v -9.96208 h 1.262799 v 9.86386 q 0,1.4452 -0.7155861,2.13273 -0.7155861,0.68752 -1.8941985,0.68752 z m 7.92758163,-10.31286 q 1.37504787,0 2.03450957,0.60334 0.6594617,0.60334 0.6594617,1.92226 v 5.12135 H 2.1748267 L 1.936298,137.52571 h -0.056124 q -0.4910885,0.61737 -1.03830146,0.91202 -0.53318181,0.29465 -1.48729663,0.29465 -1.02427031,0 -1.69776311,-0.53318 -0.6734928,-0.54721 -0.6734928,-1.69776 0,-1.12249 0.8839593,-1.72583 0.8839593,-0.61737 2.72203344,-0.67349 l 1.27683016,-0.0421 v -0.449 q 0,-0.94008 -0.4069019,-1.30489 -0.406902,-0.36481 -1.15055027,-0.36481 -0.58930621,0 -1.12248802,0.1824 -0.53318181,0.16838 -0.99620811,0.39288 l -0.3788397,-0.92606 q 0.4910885,-0.26659 1.1645813,-0.44899 0.67349282,-0.19644 1.40311003,-0.19644 z m 0.36480861,4.0129 q -1.40311003,0.0561 -1.95032294,0.44899 -0.5331818,0.39287 -0.5331818,1.10846 0,0.6314 0.3788397,0.92605 0.39287081,0.29465 0.99620812,0.29465 0.95411482,0 1.58551438,-0.51915 0.6313995,-0.53318 0.6313995,-1.6276 v -0.6735 z m 6.31400716,3.63405 -2.8483134,-7.52067 h 1.3189234 l 1.5995455,4.43383 q 0.1122488,0.30868 0.2385287,0.68752 0.1262799,0.37884 0.2244976,0.72962 0.098218,0.33675 0.140311,0.57528 h 0.056124 q 0.056124,-0.23853 0.1543421,-0.58931 0.1122488,-0.35078 0.2385287,-0.72962 0.140311,-0.37884 0.2385287,-0.67349 l 1.5995457,-4.43383 h 1.318923 l -2.8623443,7.52067 z m 8.3204344,-7.64695 q 1.375047,0 2.034509,0.60334 0.659462,0.60334 0.659462,1.92226 v 5.12135 h -0.897991 l -0.238528,-1.06636 h -0.05613 q -0.491088,0.61737 -1.038301,0.91202 -0.533182,0.29465 -1.487297,0.29465 -1.02427,0 -1.697763,-0.53318 -0.673493,-0.54721 -0.673493,-1.69776 0,-1.12249 0.88396,-1.72583 0.883959,-0.61737 2.722033,-0.67349 l 1.27683,-0.0421 v -0.449 q 0,-0.94008 -0.406902,-1.30489 -0.406902,-0.36481 -1.15055,-0.36481 -0.589306,0 -1.122488,0.1824 -0.533182,0.16838 -0.996208,0.39288 l -0.37884,-0.92606 q 0.491089,-0.26659 1.164582,-0.44899 0.673492,-0.19644 1.40311,-0.19644 z m 0.364808,4.0129 q -1.40311,0.0561 -1.950323,0.44899 -0.533182,0.39287 -0.533182,1.10846 0,0.6314 0.37884,0.92605 0.392871,0.29465 0.996208,0.29465 0.954115,0 1.585515,-0.51915 0.631399,-0.53318 0.631399,-1.6276 v -0.6735 z"
       id="text1"
       style="font-size:14.0311px;font-family:Sans;-inkscape-font-specification:Sans;fill:#000000;stroke:#000000;stroke-width:0.518295;stroke-linecap:round;stroke-linejoin:bevel;fill-opacity:1;stroke-opacity:1"
       transform="rotate(-30.792725)"
       aria-label="Java" />
    <path
       d="m 62.57483,145.04544 q -0.336746,0 -0.589306,-0.0561 -0.25256,-0.0421 -0.448995,-0.12628 v -1.06637 q 0.224498,0.0561 0.477057,0.0982 0.25256,0.0421 0.533182,0.0421 0.350778,0 0.659462,-0.14031 0.322715,-0.14031 0.519151,-0.49109 0.196435,-0.35077 0.196435,-0.98217 v -9.96208 h 1.262799 v 9.86386 q 0,1.4452 -0.715586,2.13273 -0.715586,0.68752 -1.894199,0.68752 z m 10.930237,-5.34585 q 0,1.33296 -0.968145,2.0766 -0.968146,0.74365 -2.609785,0.74365 -0.841866,0 -1.557452,-0.12628 -0.715586,-0.12628 -1.192644,-0.35077 v -1.20668 q 0.50512,0.2245 1.248768,0.4069 0.75768,0.18241 1.557452,0.18241 1.122488,0 1.683732,-0.43497 0.575275,-0.43496 0.575275,-1.17861 0,-0.49109 -0.210466,-0.82783 -0.210467,-0.33675 -0.729617,-0.61737 -0.50512,-0.29466 -1.417141,-0.61737 -1.276831,-0.46303 -1.936292,-1.13652 -0.645431,-0.67349 -0.645431,-1.83807 0,-0.79978 0.406902,-1.36102 0.406902,-0.57528 1.122488,-0.88396 0.729617,-0.30868 1.669701,-0.30868 0.827835,0 1.515359,0.15434 0.687524,0.15434 1.248768,0.4069 l -0.392871,1.08039 q -0.519151,-0.22449 -1.136519,-0.37884 -0.603338,-0.15434 -1.262799,-0.15434 -0.940084,0 -1.417141,0.4069 -0.477058,0.39287 -0.477058,1.05234 0,0.50512 0.210467,0.84186 0.210466,0.33675 0.687524,0.60334 0.477057,0.26659 1.290861,0.57528 0.883959,0.32271 1.487297,0.70155 0.617368,0.36481 0.926052,0.88396 0.322715,0.51915 0.322715,1.30489 z"
       id="text1-1"
       style="font-size:14.0311px;font-family:Sans;-inkscape-font-specification:Sans;fill:#000000;stroke:#000000;stroke-width:0.518295;stroke-linecap:round;stroke-linejoin:bevel;fill-opacity:1;stroke-opacity:1"
       transform="rotate(-30.792725)"
       aria-label="JS" />
    <path
       d="m 181.04237,34.804509 q -1.61358,0 -2.53963,1.080395 -0.92606,1.080394 -0.92606,2.960562 0,1.866136 0.8559,2.960562 0.86993,1.080395 2.59575,1.080395 0.65947,0 1.24877,-0.112249 0.58931,-0.112249 1.15055,-0.280622 v 1.094426 q -0.56124,0.210466 -1.16458,0.308684 -0.5893,0.09822 -1.41714,0.09822 -1.52939,0 -2.55366,-0.631399 -1.02427,-0.6314 -1.54342,-1.795981 -0.50512,-1.164581 -0.50512,-2.736064 0,-1.515359 0.54721,-2.665909 0.56125,-1.164582 1.64164,-1.810012 1.0804,-0.659462 2.62382,-0.659462 1.58551,0 2.76412,0.589306 l -0.50512,1.066364 q -0.46302,-0.210467 -1.0383,-0.37884 -0.56124,-0.168373 -1.23473,-0.168373 z"
       id="text1-4"
       style="font-size:14.0311px;font-family:Sans;-inkscape-font-specification:Sans;fill:#000000;stroke:#000000;stroke-width:0.518295;stroke-linecap:round;stroke-linejoin:bevel;fill-opacity:1;stroke-opacity:1"
       transform="rotate(32.831889)"
       aria-label="C" />
    <path
       d="m -6.155266,151.88477 q -0.3367464,0 -0.5893062,-0.0561 -0.2525598,-0.0421 -0.4489952,-0.12628 V 150.636 q 0.2244976,0.0561 0.4770574,0.0982 0.2525598,0.0421 0.5331818,0.0421 0.3507775,0 0.6594617,-0.14031 0.3227153,-0.14031 0.5191507,-0.49109 0.1964354,-0.35078 0.1964354,-0.98218 v -9.96208 h 1.2627991 v 9.86386 q 0,1.44521 -0.7155862,2.13273 -0.7155861,0.68753 -1.8941985,0.68753 z M 5.2099352,141.69819 v 7.52067 H 4.199696 l -0.1824043,-0.99621 h -0.056124 q -0.3648086,0.5893 -1.0102392,0.86993 -0.6454306,0.26659 -1.3750479,0.26659 -1.36101669,0 -2.0485406,-0.64543 -0.6875239,-0.65946 -0.6875239,-2.09064 v -4.92491 h 1.24876791 v 4.84073 q 0,1.79598 1.66970089,1.79598 1.248768,0 1.7258254,-0.70156 0.4910885,-0.70155 0.4910885,-2.02048 v -3.91467 z m 3.6200249,7.52067 H 7.5952233 v -10.66364 h 1.2347368 z m 3.0166779,-10.34092 q 0.280622,0 0.491088,0.19643 0.224498,0.18241 0.224498,0.58931 0,0.39287 -0.224498,0.5893 -0.210466,0.19644 -0.491088,0.19644 -0.308684,0 -0.519151,-0.19644 -0.210466,-0.19643 -0.210466,-0.5893 0,-0.4069 0.210466,-0.58931 0.210467,-0.19643 0.519151,-0.19643 z m 0.603337,2.82025 v 7.52067 h -1.234737 v -7.52067 z m 5.233593,-0.12628 q 1.375048,0 2.034509,0.60333 0.659462,0.60334 0.659462,1.92227 v 5.12135 h -0.89799 l -0.238529,-1.06637 h -0.05612 q -0.491089,0.61737 -1.038302,0.91202 -0.533182,0.29466 -1.487296,0.29466 -1.024271,0 -1.697764,-0.53318 -0.673492,-0.54722 -0.673492,-1.69777 0,-1.12249 0.883959,-1.72582 0.883959,-0.61737 2.722033,-0.6735 l 1.276831,-0.0421 v -0.44899 q 0,-0.94009 -0.406902,-1.3049 -0.406902,-0.3648 -1.150551,-0.3648 -0.589306,0 -1.122488,0.1824 -0.533181,0.16837 -0.996208,0.39287 l -0.378839,-0.92605 q 0.491088,-0.26659 1.164581,-0.449 0.673493,-0.19643 1.40311,-0.19643 z m 0.364809,4.01289 q -1.403111,0.0561 -1.950323,0.449 -0.533182,0.39287 -0.533182,1.10845 0,0.6314 0.378839,0.92606 0.392871,0.29465 0.996209,0.29465 0.954114,0 1.585514,-0.51915 0.631399,-0.53318 0.631399,-1.62761 v -0.67349 z"
       id="text1-5"
       style="font-size:14.0311px;font-family:Sans;-inkscape-font-specification:Sans;white-space:pre;fill:#000000;stroke:#000000;stroke-width:0.518295;stroke-linecap:round;stroke-linejoin:bevel;fill-opacity:1;stroke-opacity:1"
       transform="rotate(-1.7172959,-1160.8587,-3392.1247)"
       aria-label="Julia" />
    <path
       d="m 29.932659,127.52397 q -1.298224,0 -2.043291,0.86925 -0.745067,0.86924 -0.745067,2.38196 0,1.50142 0.688622,2.38195 0.699912,0.86925 2.088447,0.86925 0.530578,0 1.004712,-0.0903 0.474134,-0.0903 0.92569,-0.22578 v 0.88053 q -0.451556,0.16934 -0.936979,0.24836 -0.474134,0.079 -1.140179,0.079 -1.23049,0 -2.05458,-0.508 -0.824089,-0.508 -1.241779,-1.44498 -0.4064,-0.93698 -0.4064,-2.20133 0,-1.2192 0.440267,-2.14489 0.451556,-0.93698 1.320801,-1.45627 0.869246,-0.53058 2.111025,-0.53058 1.275646,0 2.223913,0.47413 l -0.4064,0.85796 q -0.372534,-0.16933 -0.835379,-0.3048 -0.451556,-0.13547 -0.993423,-0.13547 z m 6.208895,2.90125 h 2.246491 v 0.80151 h -2.246491 v 2.32552 h -0.812801 v -2.32552 h -2.246491 v -0.80151 h 2.246491 v -2.3368 h 0.812801 z m 6.457257,0 h 2.246491 v 0.80151 h -2.246491 v 2.32552 H 41.78601 v -2.32552 h -2.246491 v -0.80151 h 2.246491 v -2.3368 h 0.812801 z"
       id="text1-8"
       style="font-size:11.2889px;font-family:Sans;-inkscape-font-specification:Sans;white-space:pre;fill:#000000;stroke:#000000;stroke-width:0.417;stroke-linecap:round;stroke-linejoin:bevel;fill-opacity:1;stroke-opacity:1"
       transform="matrix(1.965713,0.74843713,-0.74843713,1.965713,115.72731,-198.34436)"
       aria-label="C++" />
    <path
       d="m 29.932659,127.52397 q -1.298224,0 -2.043291,0.86925 -0.745067,0.86924 -0.745067,2.38196 0,1.50142 0.688622,2.38195 0.699912,0.86925 2.088447,0.86925 0.530578,0 1.004712,-0.0903 0.474134,-0.0903 0.92569,-0.22578 v 0.88053 q -0.451556,0.16934 -0.936979,0.24836 -0.474134,0.079 -1.140179,0.079 -1.23049,0 -2.05458,-0.508 -0.824089,-0.508 -1.241779,-1.44498 -0.4064,-0.93698 -0.4064,-2.20133 0,-1.2192 0.440267,-2.14489 0.451556,-0.93698 1.320801,-1.45627 0.869246,-0.53058 2.111025,-0.53058 1.275646,0 2.223913,0.47413 l -0.4064,0.85796 q -0.372534,-0.16933 -0.835379,-0.3048 -0.451556,-0.13547 -0.993423,-0.13547 z m 8.00383,2.35938 -0.349956,1.80623 h 1.54658 v 0.75635 h -1.693335 l -0.462845,2.35938 h -0.801512 l 0.462845,-2.35938 h -1.614313 l -0.440267,2.35938 h -0.790223 l 0.428978,-2.35938 H 32.80004 v -0.75635 h 1.569157 l 0.361244,-1.80623 h -1.512712 v -0.74506 h 1.648179 l 0.451556,-2.39325 h 0.812801 l -0.451556,2.39325 h 1.625602 l 0.451556,-2.39325 h 0.778934 l -0.451556,2.39325 h 1.43369 v 0.74506 z m -2.76578,1.80623 h 1.614312 l 0.349956,-1.80623 h -1.614312 z"
       id="text1-8-5"
       style="font-size:11.2889px;font-family:Sans;-inkscape-font-specification:Sans;white-space:pre;fill:#000000;stroke:#000000;stroke-width:0.417;stroke-linecap:round;stroke-linejoin:bevel;fill-opacity:1;stroke-opacity:1"
       transform="matrix(1.6888061,-0.41292452,0.41292452,1.6888061,-13.554443,-71.971335)"
       aria-label="C#" />
  </g>
</svg>
