<?xml version="1.0" encoding="UTF-8" standalone="no"?>
<!-- Created with Inkscape (http://www.inkscape.org/) -->

<svg
   width="72.912117mm"
   height="56.87455mm"
   viewBox="0 0 72.912117 56.87455"
   version="1.1"
   id="svg8"
   xml:space="preserve"
   sodipodi:docname="LogoGraPhEr_White-Purple.svg"
   inkscape:version="1.4 (86a8ad7, 2024-10-11)"
   xmlns:inkscape="http://www.inkscape.org/namespaces/inkscape"
   xmlns:sodipodi="http://sodipodi.sourceforge.net/DTD/sodipodi-0.dtd"
   xmlns="http://www.w3.org/2000/svg"
   xmlns:svg="http://www.w3.org/2000/svg"
   xmlns:rdf="http://www.w3.org/1999/02/22-rdf-syntax-ns#"
   xmlns:cc="http://creativecommons.org/ns#"
   xmlns:dc="http://purl.org/dc/elements/1.1/"
   xmlns:ns1="http://wanglongqi.github.io/WriteTeX"
   xmlns:ns15="http://www.iki.fi/pav/software/textext/"><sodipodi:namedview
     id="namedview1"
     pagecolor="#ffffff"
     bordercolor="#000000"
     borderopacity="0.25"
     inkscape:showpageshadow="2"
     inkscape:pageopacity="0.0"
     inkscape:pagecheckerboard="0"
     inkscape:deskcolor="#d1d1d1"
     inkscape:document-units="mm"
     inkscape:zoom="1.5163442"
     inkscape:cx="-54.736913"
     inkscape:cy="65.948088"
     inkscape:window-width="1920"
     inkscape:window-height="1005"
     inkscape:window-x="-9"
     inkscape:window-y="-9"
     inkscape:window-maximized="1"
     inkscape:current-layer="svg8" /><defs
     id="defs2"><marker
       orient="auto"
       refY="0"
       refX="0"
       id="marker5029-4-5-0-0-9-1-1"
       style="overflow:visible"><path
         id="path5027-8-5-9-9-4-5-9"
         style="fill:#000000;fill-opacity:1;fill-rule:evenodd;stroke:#000000;stroke-width:0.625;stroke-linejoin:round;stroke-opacity:1"
         d="M 8.7185878,4.0337352 -2.2072895,0.01601326 8.7185884,-4.0017078 c -1.7454984,2.3720609 -1.7354408,5.6174519 -6e-7,8.035443 z"
         transform="matrix(-0.3,0,0,-0.3,0.69,0)" /></marker><marker
       orient="auto"
       refY="0"
       refX="0"
       id="marker5193-4-1-48-4-7-95-8"
       style="overflow:visible"><path
         id="path5191-8-7-82-88-8-1-9"
         style="fill:#000000;fill-opacity:1;fill-rule:evenodd;stroke:#000000;stroke-width:0.625;stroke-linejoin:round;stroke-opacity:1"
         d="M 8.7185878,4.0337352 -2.2072895,0.01601326 8.7185884,-4.0017078 c -1.7454984,2.3720609 -1.7354408,5.6174519 -6e-7,8.035443 z"
         transform="matrix(-0.3,0,0,-0.3,0.69,0)" /></marker><marker
       orient="auto"
       refY="0"
       refX="0"
       id="marker5029-4-5-0-0-9-1-1-6"
       style="overflow:visible"><path
         id="path5027-8-5-9-9-4-5-9-1"
         style="fill:#000000;fill-opacity:1;fill-rule:evenodd;stroke:#000000;stroke-width:0.625;stroke-linejoin:round;stroke-opacity:1"
         d="M 8.7185878,4.0337352 -2.2072895,0.01601326 8.7185884,-4.0017078 c -1.7454984,2.3720609 -1.7354408,5.6174519 -6e-7,8.035443 z"
         transform="matrix(-0.3,0,0,-0.3,0.69,0)" /></marker><marker
       orient="auto"
       refY="0"
       refX="0"
       id="marker5193-4-1-48-4-7-95-8-8"
       style="overflow:visible"><path
         id="path5191-8-7-82-88-8-1-9-9"
         style="fill:#000000;fill-opacity:1;fill-rule:evenodd;stroke:#000000;stroke-width:0.625;stroke-linejoin:round;stroke-opacity:1"
         d="M 8.7185878,4.0337352 -2.2072895,0.01601326 8.7185884,-4.0017078 c -1.7454984,2.3720609 -1.7354408,5.6174519 -6e-7,8.035443 z"
         transform="matrix(-0.3,0,0,-0.3,0.69,0)" /></marker></defs><metadata
     id="metadata5"><rdf:RDF><cc:Work
         rdf:about=""><dc:format>image/svg+xml</dc:format><dc:type
           rdf:resource="http://purl.org/dc/dcmitype/StillImage" /></cc:Work></rdf:RDF></metadata><path
     style="font-size:5.64444px;line-height:1.5;font-family:Sans;-inkscape-font-specification:Sans;white-space:pre;fill:#674e8a;stroke:#674e8a;stroke-width:0.144647"
     d="m 18.024206,71.992499 h 1.394177 v 1.975554 q -0.327377,0.107244 -0.660399,0.158044 -0.333022,0.0508 -0.756355,0.0508 -0.626533,0 -1.055511,-0.248355 -0.428977,-0.254 -0.654755,-0.716844 -0.220133,-0.468489 -0.220133,-1.10631 0,-0.632178 0.248355,-1.095022 0.248356,-0.462844 0.7112,-0.716844 0.468488,-0.259644 1.128888,-0.259644 0.338666,0 0.637822,0.06209 0.304799,0.06209 0.564444,0.174978 l -0.191911,0.440266 q -0.214489,-0.09596 -0.485422,-0.163689 -0.265289,-0.06773 -0.553155,-0.06773 -0.722489,0 -1.128888,0.434622 -0.400756,0.434622 -0.400756,1.190977 0,0.479777 0.1524,0.85231 0.158045,0.366889 0.491067,0.575733 0.333022,0.2032 0.874888,0.2032 0.265288,0 0.451555,-0.02822 0.186267,-0.02822 0.338666,-0.06773 v -1.196621 h -0.886177 z m 3.702757,-0.95391 q 0.08467,0 0.180622,0.01129 0.1016,0.0056 0.174977,0.02258 l -0.06209,0.4572 q -0.07338,-0.01693 -0.163689,-0.02822 -0.08467,-0.01129 -0.163689,-0.01129 -0.231422,0 -0.434622,0.129822 -0.2032,0.124178 -0.327377,0.3556 -0.118534,0.225777 -0.118534,0.530577 v 1.61431 h -0.49671 v -3.02542 h 0.406399 l 0.05645,0.553155 h 0.02258 q 0.146755,-0.248355 0.378177,-0.428977 0.231422,-0.180622 0.547511,-0.180622 z m 1.952974,0.0056 q 0.553155,0 0.818444,0.242711 0.265289,0.242711 0.265289,0.773288 v 2.060221 h -0.361244 l -0.09596,-0.428978 h -0.02258 q -0.197555,0.248356 -0.417688,0.366889 -0.214489,0.118533 -0.598311,0.118533 -0.412044,0 -0.682977,-0.214488 -0.270933,-0.220134 -0.270933,-0.682978 0,-0.451555 0.355599,-0.694266 0.3556,-0.248355 1.095022,-0.270933 l 0.513644,-0.01693 v -0.180622 q 0,-0.378178 -0.163689,-0.524933 -0.163689,-0.146756 -0.462844,-0.146756 -0.237066,0 -0.451555,0.07338 -0.214489,0.06773 -0.400755,0.158044 l -0.1524,-0.372533 q 0.197555,-0.107244 0.468488,-0.180622 0.270933,-0.07902 0.564444,-0.07902 z m 0.146756,1.61431 q -0.564444,0.02258 -0.784578,0.180622 -0.214488,0.158044 -0.214488,0.445911 0,0.254 0.1524,0.372533 0.158044,0.118533 0.400755,0.118533 0.383822,0 0.637822,-0.208844 0.253999,-0.214489 0.253999,-0.654755 V 72.64161 Z m 3.008491,-2.56822 q 0.790221,0 1.151466,0.310444 0.361244,0.310444 0.361244,0.874888 0,0.333022 -0.1524,0.626533 -0.146756,0.287866 -0.502355,0.468488 -0.349956,0.180623 -0.953911,0.180623 h -0.462844 v 1.569154 h -0.507999 v -4.03013 z m -0.04516,0.434621 h -0.513644 v 1.591733 h 0.4064 q 0.575733,0 0.857955,-0.186267 0.282222,-0.186266 0.282222,-0.632177 0,-0.389467 -0.248356,-0.581378 -0.248355,-0.191911 -0.784577,-0.191911 z m 2.822218,0.564445 q 0,0.225777 -0.02822,0.423333 h 0.03387 q 0.146755,-0.231423 0.395111,-0.349956 0.254,-0.118533 0.547511,-0.118533 0.553155,0 0.829732,0.265289 0.276578,0.259644 0.276578,0.841021 v 1.96991 H 31.175756 V 72.18441 q 0,-0.728133 -0.677333,-0.728133 -0.508,0 -0.699911,0.287867 -0.186266,0.282222 -0.186266,0.812799 v 1.56351 h -0.496711 v -4.289775 h 0.496711 z m 5.311418,3.031064 h -2.252132 v -4.03013 h 2.252132 v 0.44591 h -1.744132 v 1.258711 h 1.642532 v 0.440266 h -1.642532 v 1.439332 h 1.744132 z m 2.229553,-3.081864 q 0.08467,0 0.180622,0.01129 0.1016,0.0056 0.174977,0.02258 l -0.06209,0.4572 q -0.07338,-0.01693 -0.163688,-0.02822 -0.08467,-0.01129 -0.163689,-0.01129 -0.231422,0 -0.434622,0.129822 -0.2032,0.124178 -0.327378,0.3556 -0.118533,0.225777 -0.118533,0.530577 v 1.61431 h -0.49671 v -3.02542 h 0.406399 l 0.05645,0.553155 h 0.02258 q 0.146756,-0.248355 0.378178,-0.428977 0.231422,-0.180622 0.547511,-0.180622 z"
     id="text1-0-3-6-7-45-5-4-1"
     transform="matrix(2.2952194,0,0,2.337426,-13.346361,-163.05653)"
     aria-label="GraPhEr" /><g
     id="g9"
     transform="matrix(2.4301708,0,0,2.4359294,-149.14348,-86.153326)"><rect
       ry="0"
       y="43.41394"
       x="62.045723"
       height="14.609333"
       width="20.174793"
       id="rect4959-5-3-5-7-4-1-2"
       style="vector-effect:none;fill:#ededef;fill-opacity:1;fill-rule:evenodd;stroke:none;stroke-width:0.517457;stroke-linecap:round;stroke-linejoin:round;stroke-miterlimit:4;stroke-dasharray:none;stroke-dashoffset:0;stroke-opacity:1;paint-order:markers fill stroke" /><path
       id="path1195-4-22-1-6-0-3-5"
       d="m 62.033056,57.995628 h 23.05006"
       style="fill:none;stroke:#674e8a;stroke-width:0.556544px;stroke-linecap:round;stroke-linejoin:round;stroke-opacity:1;marker-end:url(#marker5029-4-5-0-0-9-1-1-6)" /><path
       style="fill:#4c3d60;fill-opacity:1;stroke:#4c3d60;stroke-width:0.0652812;stroke-linecap:round;stroke-linejoin:bevel;stroke-dasharray:none;stroke-opacity:1"
       d="m 83.989876,58.666348 c 0,-0.007 0.0414,-0.0933 0.0919,-0.19071 0.0804,-0.15496 0.0919,-0.21482 0.0919,-0.47915 0,-0.26458 -0.0119,-0.32618 -0.0953,-0.49627 -0.0524,-0.1068 -0.09,-0.19912 -0.0835,-0.20516 0.0243,-0.0225 1.83999,0.66794 1.83914,0.69938 0,0.018 -0.39676,0.17936 -0.88066,0.35854 -0.81399,0.30142 -0.96335,0.35 -0.96335,0.31337 z"
       id="path98-2" /><path
       id="path1197-5-1-7-1-6-47-3"
       d="M 62.045699,58.023279 V 38.153495"
       style="fill:#566d4e;fill-opacity:1;stroke:#674e8a;stroke-width:0.517;stroke-linecap:round;stroke-linejoin:round;stroke-miterlimit:4;stroke-dasharray:none;stroke-opacity:1;marker-end:url(#marker5193-4-1-48-4-7-95-8-8)" /><g
       ns1:text="$$\\sum_{n=0}^{\\infty}$$"
       transform="matrix(0.17086934,0,0,0.17931705,-23.738981,26.016995)"
       style="opacity:0.258;fill:#674e8a;fill-opacity:1;stroke:none;stroke-opacity:1"
       id="g2361-1-68-1-4-1-4-8"><g
         style="fill:#674e8a;fill-opacity:1"
         transform="matrix(0.95180251,-0.29226225,0.32187526,0.95180251,-8.4672934,179.5309)"
         id="g2359-6-5-1-2-8-6-9"><g
           style="fill:#674e8a;fill-opacity:1"
           id="g2343-5-7-5-3-9-36-2"><path
             style="fill:#674e8a;fill-opacity:1;stroke:none"
             d="M 4.171875,-2.1875 C 3.796875,-2.625 3.6875,-2.734375 3.421875,-2.921875 3,-3.234375 2.40625,-3.40625 2.03125,-3.40625 c -0.875,0 -1.703125,0.90625 -1.703125,1.75 0,0.8125 0.8125,1.71875 1.671875,1.71875 0.96875,0 1.796875,-0.84375 1.921875,-1.03125 0.203125,0.265625 0.328125,0.375 0.59375,0.5625 0.421875,0.3125 1,0.46875 1.390625,0.46875 0.859375,0 1.6875,-0.890625 1.6875,-1.734375 0,-0.8125 -0.796875,-1.734375 -1.671875,-1.734375 -0.96875,0 -1.78125,0.84375 -1.921875,1.03125 z m 0.21875,0.484375 C 4.671875,-2.15625 5.140625,-2.8125 5.984375,-2.8125 6.703125,-2.8125 7,-2.328125 7,-1.671875 7,-1 6.65625,-0.640625 6.015625,-0.640625 5.359375,-0.640625 5.0625,-1.125 4.46875,-1.828125 Z M 3.546875,-1.625 c -0.28125,0.453125 -0.75,1.109375 -1.609375,1.109375 -0.71875,0 -1.015625,-0.46875 -1.015625,-1.140625 0,-0.671875 0.359375,-1.03125 1,-1.03125 0.640625,0 0.953125,0.484375 1.53125,1.1875 z m 0,0"
             transform="translate(591.304,105.027)"
             id="path2341-6-6-2-2-8-5-8" /></g><g
           style="fill:#674e8a;fill-opacity:1"
           id="g2347-0-1-7-2-4-2-7"><path
             style="fill:#674e8a;fill-opacity:1;stroke:none"
             d="M 12.8125,13.828125 14.078125,10.5 h -0.65625 c -0.4375,1.171875 -1.296875,1.71875 -2.4375,2.015625 -0.203125,0.04687 -1.1875,0.296875 -3.09375,0.296875 h -5.6875 L 7.09375,7.09375 c 0.0625,-0.078125 0.140625,-0.203125 0.140625,-0.25 0,-0.015625 -0.0625,-0.140625 -0.125,-0.25 L 2.625,0.484375 h 5.15625 c 1.34375,0 2.25,0.140625 2.34375,0.15625 0.53125,0.078125 1.265625,0.203125 2.046875,0.703125 0.25,0.15625 0.875,0.515625 1.25,1.453125 h 0.65625 l -1.3125,-3.0625 H 0.84375 c -0.234375,0 -0.390625,0.046875 -0.5,0.28125 C 0.359375,-0.03125 0.359375,0.15625 0.359375,0.28125 l 5.25,7.203125 L 0.53125,13.4375 C 0.421875,13.5625 0.375,13.703125 0.375,13.71875 c 0,0.109375 0.28125,0.234375 0.46875,0.234375 h 11.921875 z m 0,0"
             transform="translate(588.08,108.015)"
             id="path2345-3-8-6-16-1-8-0" /></g><g
           style="fill:#674e8a;fill-opacity:1"
           id="g2351-9-9-1-85-4-1-1"><path
             style="fill:#674e8a;fill-opacity:1;stroke:none"
             d="M 0.65625,-0.640625 C 0.625,-0.546875 0.578125,-0.375 0.578125,-0.34375 c 0,0.15625 0.328125,0.40625 0.4375,0.40625 0.125,0 0.375,-0.140625 0.40625,-0.203125 0.03125,-0.0625 0.140625,-0.421875 0.1875,-0.5625 C 1.640625,-0.84375 1.71875,-1.15625 1.75,-1.34375 1.796875,-1.484375 1.84375,-1.640625 1.875,-1.8125 1.953125,-2.09375 1.90625,-2 2.109375,-2.296875 2.3125,-2.578125 2.5,-2.875 3.03125,-2.875 c 0.390625,0 0.203125,0.15625 0.203125,0.296875 0,0.40625 -0.296875,1.1875 -0.40625,1.484375 -0.078125,0.1875 -0.109375,0.25 -0.109375,0.375 0,0.359375 0.5,0.78125 0.859375,0.78125 0.703125,0 1.203125,-1.15625 1.203125,-1.25 0,-0.09375 -0.28125,-0.296875 -0.3125,-0.296875 -0.09375,0 -0.296875,0.25 -0.328125,0.328125 -0.15625,0.546875 -0.265625,0.640625 -0.53125,0.640625 -0.15625,0 0,0.09375 0,-0.046875 0,-0.15625 0.046875,-0.25 0.171875,-0.5625 0.078125,-0.21875 0.359375,-0.953125 0.359375,-1.34375 0,-0.6875 -0.71875,-1 -1.09375,-1 -0.578125,0 -1.109375,0.421875 -1.3125,0.703125 l 0.328125,0.125 C 2.015625,-3.109375 1.421875,-3.46875 1.125,-3.46875 c -0.296875,0 -0.59375,0.28125 -0.6875,0.4375 -0.15625,0.265625 -0.3125,0.796875 -0.3125,0.828125 0,0.09375 0.296875,0.28125 0.328125,0.28125 0.09375,0 0.28125,-0.203125 0.328125,-0.40625 0.109375,-0.40625 0.0625,-0.546875 0.328125,-0.546875 0.1875,0 0.03125,-0.046875 0.03125,0.140625 0,0.140625 -0.0625,0.390625 -0.109375,0.578125 -0.046875,0.1875 -0.125,0.484375 -0.15625,0.625 z m 0,0"
             transform="translate(587.77,129.114)"
             id="path2349-5-2-4-7-3-03-4" /></g><g
           style="fill:#674e8a;fill-opacity:1"
           id="g2357-7-7-2-6-9-1-8"><path
             style="fill:#674e8a;fill-opacity:1;stroke:none"
             d="m 5.359375,-2.34375 c 0.09375,0 0.453125,-0.1875 0.453125,-0.359375 0,-0.171875 -0.359375,-0.375 -0.453125,-0.375 H 0.75 c -0.09375,0 -0.453125,0.203125 -0.453125,0.375 0,0.171875 0.34375,0.359375 0.453125,0.359375 z m 0,1.53125 c 0.09375,0 0.453125,-0.1875 0.453125,-0.359375 0,-0.171875 -0.359375,-0.375 -0.453125,-0.375 H 0.75 c -0.109375,0 -0.453125,0.203125 -0.453125,0.375 C 0.296875,-1 0.65625,-0.8125 0.75,-0.8125 Z m 0,0"
             transform="translate(592.694,129.114)"
             id="path2353-2-9-3-1-8-55-1" /><path
             style="fill:#674e8a;fill-opacity:1;stroke:none"
             d="m 3.78125,-2.421875 c 0,-0.765625 -0.140625,-1.453125 -0.46875,-1.9375 -0.21875,-0.3125 -0.78125,-0.65625 -1.328125,-0.65625 -1.625,0 -1.8125,2.09375 -1.8125,2.59375 0,0.5 0.1875,2.5625 1.8125,2.5625 1.609375,0 1.796875,-2.0625 1.796875,-2.5625 z m -1.796875,1.96875 c -0.328125,0 -0.5625,0.015625 -0.703125,-0.5625 C 1.1875,-1.421875 1.1875,-2 1.1875,-2.515625 c 0,-0.5 0,-1.03125 0.109375,-1.421875 0.140625,-0.546875 0.390625,-0.5 0.6875,-0.5 0.375,0 0.53125,0.046875 0.65625,0.4375 0.125,0.390625 0.125,0.890625 0.125,1.484375 0,0.515625 0,1.03125 -0.09375,1.484375 -0.140625,0.625 -0.40625,0.578125 -0.6875,0.578125 z m 0,0"
             transform="translate(598.81002,129.114)"
             id="path2355-11-54-2-8-8-2-9" /></g></g></g><g
       ns1:text="$$\\langle f, g\\rangle$$"
       transform="matrix(0.21576713,0.04068365,-0.04269505,0.22643456,-56.989621,-2.437037)"
       style="opacity:0.277;fill:#674e8a;fill-opacity:1;stroke:none;stroke-opacity:1"
       id="g3518-5-3-2-9-0-2-3"><g
         style="fill:#674e8a;fill-opacity:1"
         id="g3516-8-1-1-2-8-1-5"><g
           style="fill:#674e8a;fill-opacity:1"
           id="g3498-7-2-6-7-7-74-9"><path
             style="fill:#674e8a;fill-opacity:1;stroke:none"
             d="m 3.46875,-7.234375 c 0.046875,-0.109375 0.046875,-0.125 0.046875,-0.171875 0,-0.109375 -0.28125,-0.34375 -0.390625,-0.34375 -0.09375,0 -0.359375,0.1875 -0.4375,0.375 l -1.734375,4.578125 c -0.03125,0.0625 -0.0625,0.109375 -0.0625,0.171875 0,0.03125 0,0.046875 0.0625,0.171875 L 2.6875,2.125 C 2.734375,2.234375 2.984375,2.5 3.125,2.5 c 0.109375,0 0.390625,-0.234375 0.390625,-0.34375 0,-0.015625 0,-0.046875 -0.046875,-0.15625 L 1.703125,-2.625 Z m 0,0"
             transform="translate(583.934,110.99)"
             id="path3496-7-3-8-9-7-8-7" /></g><g
           style="fill:#674e8a;fill-opacity:1"
           id="g3502-9-3-5-5-8-2-9"><path
             style="fill:#674e8a;fill-opacity:1;stroke:none"
             d="m 3.65625,-3.984375 h 0.859375 c 0.203125,0 0.46875,-0.15625 0.46875,-0.359375 0,-0.109375 -0.265625,-0.28125 -0.4375,-0.28125 h -0.625 L 4.09375,-5.59375 c 0.046875,-0.203125 0.140625,-0.8125 0.109375,-0.765625 0.21875,-0.453125 0.21875,-0.453125 0.4375,-0.453125 0.03125,0 0.171875,-0.046875 0.09375,-0.109375 -0.046875,0 -0.328125,0.515625 -0.328125,0.671875 0,0.234375 0.359375,0.515625 0.546875,0.515625 0.265625,0 0.71875,-0.390625 0.71875,-0.765625 0,-0.453125 -0.625,-0.859375 -1.03125,-0.859375 -0.34375,0 -1.15625,0.34375 -1.453125,1.34375 C 3.125,-5.8125 3.09375,-5.71875 2.890625,-4.625 H 2.359375 C 2.15625,-4.625 1.875,-4.453125 1.875,-4.265625 c 0,0.125 0.265625,0.28125 0.453125,0.28125 H 2.78125 L 2.0625,-0.203125 C 1.890625,0.75 1.890625,1.5 1.375,1.5 1.328125,1.5 1.203125,1.546875 1.28125,1.625 1.359375,1.609375 1.609375,1.09375 1.609375,0.953125 c 0,-0.234375 -0.34375,-0.53125 -0.53125,-0.53125 -0.265625,0 -0.734375,0.390625 -0.734375,0.78125 0,0.4375 0.625,0.84375 1.03125,0.84375 0.546875,0 1.125,-0.75 1.171875,-0.890625 0.390625,-0.75 0.671875,-2.078125 0.6875,-2.140625 l 0.5625,-3 z m 0,0"
             transform="translate(587.809,110.99)"
             id="path3500-4-4-7-4-3-3-8" /></g><g
           style="fill:#674e8a;fill-opacity:1"
           id="g3506-7-1-6-3-8-63-0"><path
             style="fill:#674e8a;fill-opacity:1;stroke:none"
             d="m 2.1875,-0.171875 c 0,-0.65625 -0.40625,-1.21875 -0.796875,-1.21875 -0.328125,0 -0.71875,0.421875 -0.71875,0.703125 C 0.671875,-0.421875 1.0625,0 1.390625,0 1.5,0 1.75,-0.09375 1.859375,-0.171875 1.890625,-0.203125 1.78125,-0.15625 1.78125,-0.15625 1.796875,-0.15625 1.625,-0.3125 1.625,-0.171875 1.625,0.5625 1.328125,1.046875 1,1.375 0.890625,1.484375 0.84375,1.625 0.84375,1.65625 c 0,0.0625 0.21875,0.265625 0.265625,0.265625 C 1.21875,1.921875 2.1875,1 2.1875,-0.171875 Z m 0,0"
             transform="translate(593.19877,110.99)"
             id="path3504-52-1-1-1-3-0-1" /></g><g
           style="fill:#674e8a;fill-opacity:1"
           id="g3510-9-3-8-2-7-3-4"><path
             style="fill:#674e8a;fill-opacity:1;stroke:none"
             d="m 4.859375,-3.921875 c 0.015625,-0.0625 0.03125,-0.109375 0.03125,-0.171875 0,-0.171875 -0.28125,-0.4375 -0.453125,-0.4375 -0.09375,0 -0.546875,0.234375 -0.59375,0.59375 H 4.203125 C 4.015625,-4.3125 3.5,-4.734375 3.09375,-4.734375 c -1.125,0 -2.546875,1.5625 -2.546875,3 0,0.984375 0.78125,1.734375 1.5,1.734375 0.59375,0 1.1875,-0.515625 1.15625,-0.5 L 3.03125,-0.671875 C 2.828125,0.15625 2.71875,0.5625 2.71875,0.59375 2.671875,0.671875 2.515625,1.5 1.453125,1.5 1.265625,1.5 0.9375,1.484375 0.65625,1.390625 V 1.71875 c 0.296875,-0.078125 0.578125,-0.5 0.578125,-0.671875 0,-0.15625 -0.28125,-0.515625 -0.546875,-0.515625 -0.21875,0 -0.71875,0.34375 -0.71875,0.75 0,0.40625 0.546875,0.765625 1.5,0.765625 1.25,0 2.140625,-0.9375 2.296875,-1.53125 z M 3.21875,-1.4375 c -0.0625,0.265625 -0.234375,0.390625 -0.453125,0.578125 -0.21875,0.1875 -0.390625,0.3125 -0.6875,0.3125 -0.5,0 -0.46875,-0.34375 -0.46875,-0.75 0,-0.484375 0.234375,-1.546875 0.5,-2.046875 0.265625,-0.5 0.578125,-0.84375 1,-0.84375 0.65625,0 0.625,0.65625 0.625,0.703125 0,0.046875 -0.03125,0.109375 -0.03125,0.140625 z m 0,0"
             transform="translate(597.6122,110.99)"
             id="path3508-0-8-9-3-1-5-7" /></g><g
           style="fill:#674e8a;fill-opacity:1"
           id="g3514-8-7-2-34-0-2-5"><path
             style="fill:#674e8a;fill-opacity:1;stroke:none"
             d="M 2.921875,-2.453125 C 2.96875,-2.578125 2.96875,-2.59375 2.96875,-2.625 c 0,-0.03125 0,-0.046875 -0.046875,-0.171875 L 1.171875,-7.375 C 1.109375,-7.546875 0.859375,-7.75 0.75,-7.75 c -0.109375,0 -0.40625,0.234375 -0.40625,0.34375 0,0.03125 0,0.046875 0.0625,0.15625 l 1.75,4.625 -1.75,4.609375 C 0.34375,2.09375 0.34375,2.109375 0.34375,2.15625 0.34375,2.265625 0.640625,2.5 0.75,2.5 0.875,2.5 1.109375,2.265625 1.15625,2.15625 Z m 0,0"
             transform="translate(602.742,110.99)"
             id="path3512-43-4-7-1-7-8-5" /></g></g></g><g
       ns1:text="$$\\mathcal{L}[f]=\\lambda\\ f$$"
       transform="matrix(0.17458927,-0.0712386,0.0747606,0.18322085,-44.485691,77.320819)"
       style="opacity:0.232;fill:#674e8a;fill-opacity:1;stroke:none;stroke-opacity:1"
       id="g3951-4-27-9-1-3-0-5"><g
         style="fill:#674e8a;fill-opacity:1"
         id="g3949-7-7-5-3-4-7-0"><g
           style="fill:#674e8a;fill-opacity:1"
           id="g3923-8-9-4-8-9-2-9"><path
             style="fill:#674e8a;fill-opacity:1;stroke:none"
             d="M 1.9375,-0.96875 C 2.46875,-1.796875 2.703125,-2.53125 2.828125,-3.0625 3.1875,-4.4375 3.5,-5.546875 4.109375,-6.234375 c 0.125,-0.125 0.0625,-0.171875 0.390625,-0.171875 0.6875,0 0.5,0.546875 0.5,0.6875 0,0.1875 -0.046875,0.328125 -0.046875,0.375 0,0.0625 0.265625,0.203125 0.265625,0.203125 0.171875,0 0.578125,-0.15625 0.828125,-0.328125 C 6.21875,-5.609375 6.375,-5.796875 6.375,-6.203125 c 0,-0.546875 -0.484375,-1.09375 -1.046875,-1.09375 -0.3125,0 -1.328125,0.125 -2.3125,1.109375 C 2.21875,-5.375 1.6875,-3.484375 1.5,-2.734375 c -0.171875,0.6875 -0.1875,0.90625 -0.5,1.5 -0.0625,0.125 -0.328125,0.5625 -0.46875,0.6875 -0.265625,0.25 -0.421875,0.53125 -0.421875,0.578125 0,0.015625 0.21875,0.1875 0.296875,0.1875 0.03125,0 0.375,-0.078125 0.640625,-0.25 0.171875,-0.09375 0.1875,-0.125 0.375,-0.3125 0.40625,0 0.75,0.09375 1.375,0.28125 0.515625,0.125 1.015625,0.28125 1.53125,0.28125 0.8125,0 1.765625,-0.640625 2.078125,-1.09375 0.203125,-0.265625 0.328125,-0.59375 0.328125,-0.625 0,-0.078125 -0.265625,-0.21875 -0.28125,-0.21875 -0.15625,0 -0.53125,0.15625 -0.703125,0.265625 -0.265625,0.171875 -0.34375,0.34375 -0.40625,0.5 C 5.296875,-0.78125 5.296875,-0.8125 5.25,-0.75 5.171875,-0.625 5.296875,-0.671875 5.15625,-0.671875 4.671875,-0.671875 4.171875,-0.8125 3.515625,-1 3.234375,-1.078125 2.6875,-1.234375 2.1875,-1.234375 c -0.125,0 -0.265625,0.015625 -0.046875,-0.046875 z m 0,0"
             transform="translate(571.916,110.99)"
             id="path3921-3-3-3-7-6-2-2" /></g><g
           style="fill:#674e8a;fill-opacity:1"
           id="g3927-3-19-1-4-5-5-8"><path
             style="fill:#674e8a;fill-opacity:1;stroke:none"
             d="m 2.71875,2.328125 v -0.5625 H 1.75 v -8.84375 H 2.71875 V -7.8125 H 1 V 2.5 h 1.71875 z m 0,0"
             transform="translate(578.788,110.99)"
             id="path3925-0-8-2-2-1-9-2" /></g><g
           style="fill:#674e8a;fill-opacity:1"
           id="g3931-7-6-3-7-0-1-4"><path
             style="fill:#674e8a;fill-opacity:1;stroke:none"
             d="m 3.65625,-3.984375 h 0.859375 c 0.203125,0 0.46875,-0.15625 0.46875,-0.359375 0,-0.109375 -0.265625,-0.28125 -0.4375,-0.28125 h -0.625 L 4.09375,-5.59375 c 0.046875,-0.203125 0.140625,-0.8125 0.109375,-0.765625 0.21875,-0.453125 0.21875,-0.453125 0.4375,-0.453125 0.03125,0 0.171875,-0.046875 0.09375,-0.109375 -0.046875,0 -0.328125,0.515625 -0.328125,0.671875 0,0.234375 0.359375,0.515625 0.546875,0.515625 0.265625,0 0.71875,-0.390625 0.71875,-0.765625 0,-0.453125 -0.625,-0.859375 -1.03125,-0.859375 -0.34375,0 -1.15625,0.34375 -1.453125,1.34375 C 3.125,-5.8125 3.09375,-5.71875 2.890625,-4.625 H 2.359375 C 2.15625,-4.625 1.875,-4.453125 1.875,-4.265625 c 0,0.125 0.265625,0.28125 0.453125,0.28125 H 2.78125 L 2.0625,-0.203125 C 1.890625,0.75 1.890625,1.5 1.375,1.5 1.328125,1.5 1.203125,1.546875 1.28125,1.625 1.359375,1.609375 1.609375,1.09375 1.609375,0.953125 c 0,-0.234375 -0.34375,-0.53125 -0.53125,-0.53125 -0.265625,0 -0.734375,0.390625 -0.734375,0.78125 0,0.4375 0.625,0.84375 1.03125,0.84375 0.546875,0 1.125,-0.75 1.171875,-0.890625 0.390625,-0.75 0.671875,-2.078125 0.6875,-2.140625 l 0.5625,-3 z m 0,0"
             transform="translate(581.555,110.99)"
             id="path3929-7-5-3-7-9-0-5" /></g><g
           style="fill:#674e8a;fill-opacity:1"
           id="g3935-2-0-4-9-9-8-0"><path
             style="fill:#674e8a;fill-opacity:1;stroke:none"
             d="m 1.578125,-7.8125 h -1.53125 v 0.734375 H 1 v 8.84375 H 0.046875 V 2.5 H 1.75 V -7.8125 Z m 0,0"
             transform="translate(587.505,110.99)"
             id="path3933-2-2-1-3-6-5-4" /></g><g
           style="fill:#674e8a;fill-opacity:1"
           id="g3939-5-8-1-19-8-0-4"><path
             style="fill:#674e8a;fill-opacity:1;stroke:none"
             d="m 6.84375,-3.265625 c 0.15625,0 0.515625,-0.15625 0.515625,-0.359375 0,-0.1875 -0.359375,-0.359375 -0.5,-0.359375 H 0.890625 C 0.75,-3.984375 0.375,-3.8125 0.375,-3.625 c 0,0.203125 0.375,0.359375 0.515625,0.359375 z m 0.015625,1.9375 c 0.140625,0 0.5,-0.15625 0.5,-0.359375 C 7.359375,-1.890625 7,-2.046875 6.84375,-2.046875 H 0.890625 C 0.75,-2.046875 0.375,-1.890625 0.375,-1.6875 c 0,0.203125 0.375,0.359375 0.515625,0.359375 z m 0,0"
             transform="translate(593.02428,110.99)"
             id="path3937-7-6-3-8-3-7-0" /></g><g
           style="fill:#674e8a;fill-opacity:1"
           id="g3943-2-0-8-6-4-9-5"><path
             style="fill:#674e8a;fill-opacity:1;stroke:none"
             d="m 3.375,-3.078125 c 0.40625,1.046875 0.9375,2.6875 1.09375,2.921875 0.171875,0.21875 0.390625,0.265625 0.671875,0.265625 h 0.21875 C 5.453125,0.09375 5.625,-0.125 5.625,-0.15625 5.625,-0.171875 5.5625,-0.3125 5.53125,-0.359375 5.4375,-0.46875 5.421875,-0.5 5.359375,-0.703125 L 3.3125,-6.375 C 3.109375,-6.953125 2.40625,-7.25 1.9375,-7.25 c -0.046875,0 -0.359375,0.171875 -0.359375,0.28125 0,0.078125 0.25,0.265625 0.265625,0.265625 C 2.171875,-6.65625 2.0625,-6.75 2.3125,-6.078125 L 3.265625,-3.40625 0.578125,-0.75 c -0.125,0.125 -0.234375,0.296875 -0.234375,0.4375 0,0.15625 0.328125,0.4375 0.484375,0.4375 0.15625,0 0.375,-0.15625 0.453125,-0.25 l 2.234375,-2.640625 z m 0,0"
             transform="translate(603.556,110.99)"
             id="path3941-9-2-7-5-8-0-1" /></g><g
           style="fill:#674e8a;fill-opacity:1"
           id="g3947-0-4-4-0-4-5-1"><path
             style="fill:#674e8a;fill-opacity:1;stroke:none"
             d="m 3.65625,-3.984375 h 0.859375 c 0.203125,0 0.46875,-0.15625 0.46875,-0.359375 0,-0.109375 -0.265625,-0.28125 -0.4375,-0.28125 h -0.625 L 4.09375,-5.59375 c 0.046875,-0.203125 0.140625,-0.8125 0.109375,-0.765625 0.21875,-0.453125 0.21875,-0.453125 0.4375,-0.453125 0.03125,0 0.171875,-0.046875 0.09375,-0.109375 -0.046875,0 -0.328125,0.515625 -0.328125,0.671875 0,0.234375 0.359375,0.515625 0.546875,0.515625 0.265625,0 0.71875,-0.390625 0.71875,-0.765625 0,-0.453125 -0.625,-0.859375 -1.03125,-0.859375 -0.34375,0 -1.15625,0.34375 -1.453125,1.34375 C 3.125,-5.8125 3.09375,-5.71875 2.890625,-4.625 H 2.359375 C 2.15625,-4.625 1.875,-4.453125 1.875,-4.265625 c 0,0.125 0.265625,0.28125 0.453125,0.28125 H 2.78125 L 2.0625,-0.203125 C 1.890625,0.75 1.890625,1.5 1.375,1.5 1.328125,1.5 1.203125,1.546875 1.28125,1.625 1.359375,1.609375 1.609375,1.09375 1.609375,0.953125 c 0,-0.234375 -0.34375,-0.53125 -0.53125,-0.53125 -0.265625,0 -0.734375,0.390625 -0.734375,0.78125 0,0.4375 0.625,0.84375 1.03125,0.84375 0.546875,0 1.125,-0.75 1.171875,-0.890625 0.390625,-0.75 0.671875,-2.078125 0.6875,-2.140625 l 0.5625,-3 z m 0,0"
             transform="translate(612.67178,110.99)"
             id="path3945-9-8-2-2-9-3-5" /></g></g></g><g
       ns1:text="$$u(\\mathbf{x})|_{x=0}=0$$"
       transform="matrix(0.14683415,0.08477473,-0.08896595,0.15409358,-0.90724144,-12.779049)"
       style="opacity:0.258;fill:#674e8a;fill-opacity:1;stroke:none;stroke-opacity:1"
       id="g2276-8-7-7-8-9-4-9"><g
         style="fill:#674e8a;fill-opacity:1"
         id="g2274-5-8-7-6-2-10-0"><g
           style="fill:#674e8a;fill-opacity:1"
           id="g2238-8-8-9-0-5-4-8"><path
             style="fill:#674e8a;fill-opacity:1;stroke:none"
             d="m 3.3125,-0.71875 c 0.109375,0.40625 0.640625,0.828125 1.0625,0.828125 0.34375,0 0.703125,-0.28125 0.78125,-0.453125 0.296875,-0.609375 0.421875,-1.21875 0.421875,-1.234375 0,-0.109375 -0.25,-0.28125 -0.28125,-0.28125 C 5.1875,-1.859375 5,-1.640625 4.96875,-1.5 c -0.140625,0.546875 -0.140625,1.0625 -0.5625,1.0625 -0.203125,0 -0.140625,0.03125 -0.140625,-0.296875 0,-0.21875 0.125,-0.6875 0.203125,-1.03125 L 4.75,-2.84375 C 4.78125,-2.984375 4.875,-3.375 4.921875,-3.515625 4.96875,-3.75 5.0625,-4.125 5.0625,-4.1875 5.0625,-4.359375 4.75,-4.625 4.609375,-4.625 c -0.046875,0 -0.5,0.171875 -0.578125,0.515625 -0.1875,0.734375 -0.625,2.46875 -0.734375,3 C 3.28125,-1.0625 3.0625,-0.4375 2.328125,-0.4375 c -0.515625,0 -0.4375,-0.28125 -0.4375,-0.65625 0,-0.546875 0.265625,-1.34375 0.53125,-2.03125 0.125,-0.296875 0.171875,-0.4375 0.171875,-0.625 0,-0.453125 -0.484375,-0.984375 -0.984375,-0.984375 -0.953125,0 -1.5,1.609375 -1.5,1.703125 0,0.09375 0.28125,0.265625 0.296875,0.265625 0.109375,0 0.28125,-0.1875 0.328125,-0.34375 0.25,-0.875 0.46875,-1.078125 0.84375,-1.078125 0.09375,0 0.0625,-0.15625 0.0625,0.171875 0,0.234375 -0.109375,0.53125 -0.171875,0.671875 -0.359375,0.984375 -0.578125,1.609375 -0.578125,2.09375 0,0.953125 0.875,1.359375 1.40625,1.359375 0.65625,0 1.140625,-0.5 1.109375,-0.453125 z m 0,0"
             transform="translate(567.459,110.99)"
             id="path2236-6-2-3-2-5-8-3" /></g><g
           style="fill:#674e8a;fill-opacity:1"
           id="g2242-8-9-1-4-3-5-8"><path
             style="fill:#674e8a;fill-opacity:1;stroke:none"
             d="M 3.46875,2.234375 C 3.46875,2.203125 3.421875,2.0625 3.25,1.890625 2,0.640625 1.734375,-1.125 1.734375,-2.65625 c 0,-1.734375 0.328125,-3.359375 1.5625,-4.59375 0.125,-0.125 0.171875,-0.25 0.171875,-0.28125 0,-0.078125 -0.203125,-0.28125 -0.265625,-0.28125 -0.109375,0 -1.171875,0.859375 -1.765625,2.125 -0.515625,1.09375 -0.625,2.203125 -0.625,3.03125 0,0.78125 0.109375,1.984375 0.65625,3.109375 C 2.0625,1.6875 3.09375,2.5 3.203125,2.5 3.265625,2.5 3.46875,2.296875 3.46875,2.234375 Z m 0,0"
             transform="translate(573.162,110.99)"
             id="path2240-7-1-9-8-3-9-7" /></g><g
           style="fill:#674e8a;fill-opacity:1"
           id="g2246-15-3-8-6-3-2-2"><path
             style="fill:#674e8a;fill-opacity:1;stroke:none"
             d="m 3.53125,-2.5 1.171875,-1.296875 c 0.125,-0.140625 0.109375,-0.15625 1.0625,-0.15625 v -0.8125 c -0.484375,0.03125 -1,0.046875 -1.046875,0.046875 -0.25,0 -0.75,-0.03125 -1.171875,-0.046875 v 0.8125 c 0.28125,0 0.296875,-0.03125 0.3125,-0.03125 0.0625,-0.109375 0.0625,-0.078125 0.03125,-0.046875 l -0.734375,0.828125 -0.640625,-0.75 h 0.1875 v -0.8125 C 2.3125,-4.75 1.6875,-4.71875 1.359375,-4.71875 1.046875,-4.71875 0.59375,-4.75 0.125,-4.765625 v 0.8125 h 0.796875 l 1.40625,1.65625 L 1.125,-0.9375 C 0.953125,-0.75 0.703125,-0.796875 0.078125,-0.796875 v 0.8125 c 0.484375,-0.03125 1.015625,-0.046875 1.0625,-0.046875 0.25,0 0.828125,0.015625 1.15625,0.046875 v -0.8125 c -0.3125,0 -0.375,0.125 -0.375,0.0625 0,-0.015625 -0.03125,0.09375 0.03125,0 l 0.875,-0.953125 0.765625,0.890625 h -0.1875 v 0.8125 c 0.390625,-0.03125 1,-0.046875 1.328125,-0.046875 0.3125,0 0.765625,0.015625 1.234375,0.046875 v -0.8125 H 5.171875 l -1.53125,-1.8125 z m 0,0"
             transform="translate(577.036,110.99)"
             id="path2244-5-5-6-50-7-5-6" /></g><g
           style="fill:#674e8a;fill-opacity:1"
           id="g2250-5-9-5-9-4-4-9"><path
             style="fill:#674e8a;fill-opacity:1;stroke:none"
             d="m 3.046875,-2.65625 c 0,-0.765625 -0.109375,-1.984375 -0.65625,-3.109375 -0.59375,-1.21875 -1.625,-2.046875 -1.71875,-2.046875 -0.0625,0 -0.28125,0.21875 -0.28125,0.28125 0,0.03125 0.046875,0.15625 0.234375,0.328125 0.984375,1 1.5,2.46875 1.5,4.546875 0,1.703125 -0.328125,3.34375 -1.5625,4.59375 -0.125,0.125 -0.171875,0.265625 -0.171875,0.296875 0,0.0625 0.21875,0.265625 0.28125,0.265625 0.09375,0 1.15625,-0.84375 1.75,-2.109375 0.515625,-1.09375 0.625,-2.203125 0.625,-3.046875 z m 0,0"
             transform="translate(583.083,110.99)"
             id="path2248-2-84-0-0-3-1-3" /></g><g
           style="fill:#674e8a;fill-opacity:1"
           id="g2254-4-0-2-0-8-39-8"><path
             style="fill:#674e8a;fill-opacity:1;stroke:none"
             d="m 1.78125,-7.25 c 0,-0.171875 -0.203125,-0.5 -0.390625,-0.5 -0.203125,0 -0.40625,0.328125 -0.40625,0.5 V 2 c 0,0.1875 0.203125,0.5 0.40625,0.5 0.1875,0 0.390625,-0.3125 0.390625,-0.5 z m 0,0"
             transform="translate(586.957,110.99)"
             id="path2252-08-7-8-6-0-5-1" /></g><g
           style="fill:#674e8a;fill-opacity:1"
           id="g2258-3-63-6-1-8-8-0"><path
             style="fill:#674e8a;fill-opacity:1;stroke:none"
             d="m 1.546875,-0.9375 c -0.078125,0.234375 -0.109375,0.421875 -0.46875,0.421875 -0.015625,0 -0.09375,0.0625 0.046875,0.15625 -0.140625,0.046875 0.078125,-0.40625 0.078125,-0.4375 0,-0.15625 -0.3125,-0.453125 -0.46875,-0.453125 -0.203125,0 -0.59375,0.359375 -0.59375,0.609375 0,0.359375 0.578125,0.703125 0.921875,0.703125 0.328125,0 0.75,-0.25 0.765625,-0.296875 C 1.8125,-0.25 2.390625,0.0625 2.671875,0.0625 c 0.8125,0 1.421875,-1.0625 1.421875,-1.25 0,-0.09375 -0.28125,-0.296875 -0.296875,-0.296875 -0.109375,0 -0.3125,0.234375 -0.328125,0.328125 -0.15625,0.46875 -0.375,0.640625 -0.765625,0.640625 -0.28125,0 -0.234375,0 -0.234375,-0.265625 0,-0.171875 0.171875,-0.8125 0.359375,-1.578125 0.140625,-0.546875 0.265625,-0.515625 0.5,-0.515625 0.015625,0 0.09375,-0.0625 -0.078125,-0.171875 0.234375,-0.0625 -0.046875,0.328125 -0.046875,0.453125 0,0.15625 0.3125,0.453125 0.46875,0.453125 0.15625,0 0.578125,-0.328125 0.578125,-0.625 0,-0.390625 -0.640625,-0.703125 -0.90625,-0.703125 -0.359375,0 -0.765625,0.296875 -0.765625,0.296875 C 2.625,-3.0625 2.109375,-3.46875 1.71875,-3.46875 c -0.78125,0 -1.421875,1.0625 -1.421875,1.265625 0,0.09375 0.296875,0.28125 0.3125,0.28125 0.09375,0 0.296875,-0.21875 0.328125,-0.3125 C 1.109375,-2.78125 1.359375,-2.875 1.703125,-2.875 c 0.234375,0 0.21875,-0.078125 0.21875,0.265625 0,0.140625 -0.078125,0.484375 -0.140625,0.71875 z m 0,0"
             transform="translate(589.725,112.485)"
             id="path2256-21-6-0-3-8-2-3" /></g><g
           style="fill:#674e8a;fill-opacity:1"
           id="g2264-8-1-2-8-0-7-3"><path
             style="fill:#674e8a;fill-opacity:1;stroke:none"
             d="m 5.359375,-2.34375 c 0.09375,0 0.453125,-0.1875 0.453125,-0.359375 0,-0.171875 -0.359375,-0.375 -0.453125,-0.375 H 0.75 c -0.09375,0 -0.453125,0.203125 -0.453125,0.375 0,0.171875 0.34375,0.359375 0.453125,0.359375 z m 0,1.53125 c 0.09375,0 0.453125,-0.1875 0.453125,-0.359375 0,-0.171875 -0.359375,-0.375 -0.453125,-0.375 H 0.75 c -0.109375,0 -0.453125,0.203125 -0.453125,0.375 C 0.296875,-1 0.65625,-0.8125 0.75,-0.8125 Z m 0,0"
             transform="translate(594.242,112.485)"
             id="path2260-1-5-4-9-6-96-8" /><path
             style="fill:#674e8a;fill-opacity:1;stroke:none"
             d="m 3.78125,-2.421875 c 0,-0.765625 -0.140625,-1.453125 -0.46875,-1.9375 -0.21875,-0.3125 -0.78125,-0.65625 -1.328125,-0.65625 -1.625,0 -1.8125,2.09375 -1.8125,2.59375 0,0.5 0.1875,2.5625 1.8125,2.5625 1.609375,0 1.796875,-2.0625 1.796875,-2.5625 z m -1.796875,1.96875 c -0.328125,0 -0.5625,0.015625 -0.703125,-0.5625 C 1.1875,-1.421875 1.1875,-2 1.1875,-2.515625 c 0,-0.5 0,-1.03125 0.109375,-1.421875 0.140625,-0.546875 0.390625,-0.5 0.6875,-0.5 0.375,0 0.53125,0.046875 0.65625,0.4375 0.125,0.390625 0.125,0.890625 0.125,1.484375 0,0.515625 0,1.03125 -0.09375,1.484375 -0.140625,0.625 -0.40625,0.578125 -0.6875,0.578125 z m 0,0"
             transform="translate(600.35802,112.485)"
             id="path2262-3-4-8-3-8-1-4" /></g><g
           style="fill:#674e8a;fill-opacity:1"
           id="g2268-6-20-6-4-1-77-8"><path
             style="fill:#674e8a;fill-opacity:1;stroke:none"
             d="m 6.84375,-3.265625 c 0.15625,0 0.515625,-0.15625 0.515625,-0.359375 0,-0.1875 -0.359375,-0.359375 -0.5,-0.359375 H 0.890625 C 0.75,-3.984375 0.375,-3.8125 0.375,-3.625 c 0,0.203125 0.375,0.359375 0.515625,0.359375 z m 0.015625,1.9375 c 0.140625,0 0.5,-0.15625 0.5,-0.359375 C 7.359375,-1.890625 7,-2.046875 6.84375,-2.046875 H 0.890625 C 0.75,-2.046875 0.375,-1.890625 0.375,-1.6875 c 0,0.203125 0.375,0.359375 0.515625,0.359375 z m 0,0"
             transform="translate(607.595,110.99)"
             id="path2266-1-97-5-4-9-1-0" /></g><g
           style="fill:#674e8a;fill-opacity:1"
           id="g2272-4-3-0-6-8-9-1"><path
             style="fill:#674e8a;fill-opacity:1;stroke:none"
             d="M 4.75,-3.34375 C 4.75,-4.140625 4.703125,-4.9375 4.359375,-5.6875 3.890625,-6.640625 2.90625,-6.96875 2.5,-6.96875 c -0.609375,0 -1.515625,0.421875 -1.921875,1.359375 -0.3125,0.6875 -0.375,1.46875 -0.375,2.265625 0,0.734375 0.09375,1.75 0.5,2.5 0.4375,0.8125 1.296875,1.0625 1.78125,1.0625 0.53125,0 1.46875,-0.375 1.90625,-1.3125 C 4.703125,-1.78125 4.75,-2.5625 4.75,-3.34375 Z M 2.484375,-0.328125 C 2.09375,-0.328125 1.671875,-0.40625 1.5,-1.359375 1.390625,-1.96875 1.390625,-2.875 1.390625,-3.46875 c 0,-0.640625 0,-1.296875 0.078125,-1.828125 0.1875,-1.1875 0.765625,-1.125 1.015625,-1.125 0.328125,0 0.8125,0.015625 1,1.015625 0.09375,0.546875 0.09375,1.3125 0.09375,1.9375 0,0.75 0,1.421875 -0.109375,2.0625 -0.15625,0.953125 -0.53125,1.078125 -0.984375,1.078125 z m 0,0"
             transform="translate(618.09558,110.99)"
             id="path2270-3-7-9-0-9-0-5" /></g></g></g><g
       transform="matrix(0.22655104,0,0,0.22655104,66.386139,48.307499)"
       ns15:version="1.10.2"
       ns15:texconverter="pdflatex"
       ns15:pdfconverter="inkscape"
       ns15:text="$$\\frac{\\partial^2 u}{\\partial t^2}=c^2\\frac{\\partial^2 u}{\\partial x^2}$$"
       ns15:preamble="C:\Users\Edgar\AppData\Roaming\inkscape\extensions\textext\default_packages.tex"
       ns15:scale="3.769289490086148"
       ns15:alignment="middle center"
       ns15:stroke-to-path="0"
       ns15:inkscapeversion="1.4"
       ns15:jacobian_sqrt="1.32972"
       id="g19-0-6-7-34-4"
       style="fill:#674e8a;fill-opacity:1;stroke:#674e8a;stroke-width:0.188751;stroke-dasharray:none;stroke-opacity:1"><defs
   id="id-dbb0d10a-89d7-4677-84f3-722e0cb81f6f-0-6-2-1-1" />
  <g
   fill="#000000"
   fill-opacity="1"
   id="id-37257fb3-024e-4326-adcb-e65fd752cf5d-9-6-2-1-9"
   transform="translate(-277.383,-135.63)"
   style="fill:#674e8a;fill-opacity:1;stroke:#674e8a;stroke-width:0.188751;stroke-dasharray:none;stroke-opacity:1">
    <g
   transform="translate(277.381,143.871)"
   id="g2-6-3-5-3-7"
   style="fill:#674e8a;fill-opacity:1;stroke:#674e8a;stroke-width:0.188751;stroke-dasharray:none;stroke-opacity:1"><path
   d="m 4.609375,-3.375 c -0.09375,-0.625 -0.5,-1.1875 -1.28125,-1.1875 -0.609375,0 -1.25,0.171875 -2.03125,0.9375 -0.828125,0.828125 -0.890625,1.765625 -0.890625,2.0625 0,0.625 0.4375,1.78125 1.828125,1.78125 2.375,0 3.40625,-3.34375 3.40625,-4.78125 0,-1.578125 -0.921875,-2.578125 -2.15625,-2.578125 -1.4375,0 -1.90625,1.296875 -1.90625,1.578125 0,0.140625 0.09375,0.34375 0.390625,0.34375 0.328125,0 0.53125,-0.296875 0.53125,-0.515625 0,-0.359375 -0.3125,-0.359375 -0.46875,-0.359375 0.4375,-0.734375 1.15625,-0.796875 1.4375,-0.796875 0.734375,0 1.421875,0.515625 1.421875,1.8125 0,0.390625 -0.0625,0.890625 -0.265625,1.703125 z m -2.34375,3.3125 c -1.09375,0 -1.09375,-1.03125 -1.09375,-1.125 0,-0.265625 0.25,-1.65625 0.65625,-2.265625 0.390625,-0.5625 0.890625,-0.890625 1.5,-0.890625 1.09375,0 1.109375,1.125 1.109375,1.328125 0,0.71875 -0.640625,2.953125 -2.171875,2.953125 z m 0,0"
   id="id-a5d9cf06-3fd0-43b3-8996-67a97813d57d-3-6-8-6-8"
   style="fill:#674e8a;fill-opacity:1;stroke:#674e8a;stroke-width:0.188751;stroke-dasharray:none;stroke-opacity:1" />
      </g></g>
  <g
   fill="#000000"
   fill-opacity="1"
   id="id-c1f15b15-799f-49a0-978e-0def9ff49dfa-7-1-6-30-9"
   transform="translate(-277.383,-135.63)"
   style="fill:#674e8a;fill-opacity:1;stroke:#674e8a;stroke-width:0.188751;stroke-dasharray:none;stroke-opacity:1">
    <g
   transform="translate(283.224,140.255)"
   id="g3-5-2-1-4"
   style="fill:#674e8a;fill-opacity:1;stroke:#674e8a;stroke-width:0.188751;stroke-dasharray:none;stroke-opacity:1"><path
   d="M 3.515625,-1.265625 H 3.28125 c -0.015625,0.15625 -0.09375,0.5625 -0.1875,0.625 C 3.046875,-0.59375 2.515625,-0.59375 2.40625,-0.59375 H 1.125 c 0.734375,-0.640625 0.984375,-0.84375 1.390625,-1.171875 0.515625,-0.40625 1,-0.84375 1,-1.5 0,-0.84375 -0.734375,-1.359375 -1.625,-1.359375 -0.859375,0 -1.453125,0.609375 -1.453125,1.25 0,0.34375 0.296875,0.390625 0.375,0.390625 0.15625,0 0.359375,-0.125 0.359375,-0.375 0,-0.125 -0.046875,-0.375 -0.40625,-0.375 C 0.984375,-4.21875 1.453125,-4.375 1.78125,-4.375 c 0.703125,0 1.0625,0.546875 1.0625,1.109375 0,0.609375 -0.4375,1.078125 -0.65625,1.328125 L 0.515625,-0.265625 C 0.4375,-0.203125 0.4375,-0.1875 0.4375,0 h 2.875 z m 0,0"
   id="id-c3777b99-973e-4554-b3d0-e64d8fb0a052-8-4-6-9-1"
   style="fill:#674e8a;fill-opacity:1;stroke:#674e8a;stroke-width:0.188751;stroke-dasharray:none;stroke-opacity:1" />
      </g></g>
  <g
   fill="#000000"
   fill-opacity="1"
   id="id-da86a0c3-780e-4688-b7ff-e6e101f934c8-8-2-5-0-5"
   transform="translate(-277.383,-135.63)"
   style="fill:#674e8a;fill-opacity:1;stroke:#674e8a;stroke-width:0.188751;stroke-dasharray:none;stroke-opacity:1">
    <g
   transform="translate(287.693,143.871)"
   id="g6-2-0-3-4-6"
   style="fill:#674e8a;fill-opacity:1;stroke:#674e8a;stroke-width:0.188751;stroke-dasharray:none;stroke-opacity:1"><path
   d="M 3.484375,-0.5625 C 3.59375,-0.15625 3.953125,0.109375 4.375,0.109375 4.71875,0.109375 4.953125,-0.125 5.109375,-0.4375 5.28125,-0.796875 5.40625,-1.40625 5.40625,-1.421875 c 0,-0.109375 -0.078125,-0.109375 -0.109375,-0.109375 -0.109375,0 -0.109375,0.046875 -0.140625,0.1875 -0.140625,0.5625 -0.328125,1.234375 -0.75,1.234375 -0.203125,0 -0.3125,-0.125 -0.3125,-0.453125 0,-0.21875 0.125,-0.6875 0.203125,-1.046875 L 4.578125,-2.6875 C 4.609375,-2.828125 4.703125,-3.203125 4.75,-3.359375 4.796875,-3.59375 4.890625,-3.96875 4.890625,-4.03125 c 0,-0.171875 -0.140625,-0.265625 -0.28125,-0.265625 -0.046875,0 -0.3125,0.015625 -0.390625,0.34375 -0.1875,0.734375 -0.625,2.484375 -0.75,3 -0.015625,0.046875 -0.40625,0.84375 -1.140625,0.84375 -0.515625,0 -0.609375,-0.453125 -0.609375,-0.8125 0,-0.5625 0.28125,-1.34375 0.53125,-2.03125 0.125,-0.3125 0.171875,-0.453125 0.171875,-0.640625 0,-0.4375 -0.3125,-0.8125 -0.8125,-0.8125 -0.953125,0 -1.3125,1.453125 -1.3125,1.53125 0,0.109375 0.09375,0.109375 0.109375,0.109375 0.109375,0 0.109375,-0.03125 0.15625,-0.1875 0.25,-0.859375 0.640625,-1.234375 1.015625,-1.234375 0.09375,0 0.25,0.015625 0.25,0.328125 0,0.234375 -0.109375,0.53125 -0.171875,0.671875 -0.375,1 -0.578125,1.609375 -0.578125,2.09375 0,0.953125 0.6875,1.203125 1.21875,1.203125 0.65625,0 1.015625,-0.453125 1.1875,-0.671875 z m 0,0"
   id="id-6fd873ff-20b4-41fd-ad72-64780ecdfb08-9-9-9-2-6"
   style="fill:#674e8a;fill-opacity:1;stroke:#674e8a;stroke-width:0.188751;stroke-dasharray:none;stroke-opacity:1" />
      </g></g>
  <path
   fill="none"
   stroke-width="0.398"
   stroke-linecap="butt"
   stroke-linejoin="miter"
   stroke="#000000"
   stroke-opacity="1"
   stroke-miterlimit="10"
   d="M 0,12.491089 H 16.011719"
   id="id-da219575-3d91-437d-b689-c9e4ba4d5327-1-7-2-9-6"
   style="fill:#674e8a;fill-opacity:1;stroke:#674e8a;stroke-width:0.188751;stroke-dasharray:none;stroke-opacity:1" />
  <g
   fill="#000000"
   fill-opacity="1"
   id="id-66d5fd91-f7d1-4cd5-9ff6-2607500108af-3-3-4-31-6"
   transform="translate(-277.383,-135.63)"
   style="fill:#674e8a;fill-opacity:1;stroke:#674e8a;stroke-width:0.188751;stroke-dasharray:none;stroke-opacity:1">
    <g
   transform="translate(278.434,157.444)"
   id="g7-5-7-6-4-6"
   style="fill:#674e8a;fill-opacity:1;stroke:#674e8a;stroke-width:0.188751;stroke-dasharray:none;stroke-opacity:1"><path
   d="m 4.609375,-3.375 c -0.09375,-0.625 -0.5,-1.1875 -1.28125,-1.1875 -0.609375,0 -1.25,0.171875 -2.03125,0.9375 -0.828125,0.828125 -0.890625,1.765625 -0.890625,2.0625 0,0.625 0.4375,1.78125 1.828125,1.78125 2.375,0 3.40625,-3.34375 3.40625,-4.78125 0,-1.578125 -0.921875,-2.578125 -2.15625,-2.578125 -1.4375,0 -1.90625,1.296875 -1.90625,1.578125 0,0.140625 0.09375,0.34375 0.390625,0.34375 0.328125,0 0.53125,-0.296875 0.53125,-0.515625 0,-0.359375 -0.3125,-0.359375 -0.46875,-0.359375 0.4375,-0.734375 1.15625,-0.796875 1.4375,-0.796875 0.734375,0 1.421875,0.515625 1.421875,1.8125 0,0.390625 -0.0625,0.890625 -0.265625,1.703125 z m -2.34375,3.3125 c -1.09375,0 -1.09375,-1.03125 -1.09375,-1.125 0,-0.265625 0.25,-1.65625 0.65625,-2.265625 0.390625,-0.5625 0.890625,-0.890625 1.5,-0.890625 1.09375,0 1.109375,1.125 1.109375,1.328125 0,0.71875 -0.640625,2.953125 -2.171875,2.953125 z m 0,0"
   id="id-caa7a623-120b-4f15-94e3-f23c56d15ef5-9-2-1-8-7"
   style="fill:#674e8a;fill-opacity:1;stroke:#674e8a;stroke-width:0.188751;stroke-dasharray:none;stroke-opacity:1" />
      </g></g>
  <g
   fill="#000000"
   fill-opacity="1"
   id="id-33471833-0cb7-49a5-a1e4-e7a4c4f1fcdb-8-6-8-2-1"
   transform="translate(-277.383,-135.63)"
   style="fill:#674e8a;fill-opacity:1;stroke:#674e8a;stroke-width:0.188751;stroke-dasharray:none;stroke-opacity:1">
    <g
   transform="translate(284.281,157.444)"
   id="g8-4-0-2-0-4"
   style="fill:#674e8a;fill-opacity:1;stroke:#674e8a;stroke-width:0.188751;stroke-dasharray:none;stroke-opacity:1"><path
   d="m 2.046875,-3.984375 h 0.9375 c 0.203125,0 0.3125,0 0.3125,-0.203125 0,-0.109375 -0.109375,-0.109375 -0.28125,-0.109375 h -0.875 C 2.5,-5.71875 2.546875,-5.90625 2.546875,-5.96875 c 0,-0.171875 -0.125,-0.265625 -0.296875,-0.265625 -0.03125,0 -0.3125,0 -0.390625,0.359375 L 1.46875,-4.296875 h -0.9375 c -0.203125,0 -0.296875,0 -0.296875,0.1875 0,0.125 0.078125,0.125 0.28125,0.125 h 0.875 C 0.671875,-1.15625 0.625,-0.984375 0.625,-0.8125 0.625,-0.265625 1,0.109375 1.546875,0.109375 2.5625,0.109375 3.125,-1.34375 3.125,-1.421875 3.125,-1.53125 3.046875,-1.53125 3.015625,-1.53125 2.921875,-1.53125 2.90625,-1.5 2.859375,-1.390625 2.4375,-0.34375 1.90625,-0.109375 1.5625,-0.109375 c -0.203125,0 -0.3125,-0.125 -0.3125,-0.453125 0,-0.25 0.03125,-0.3125 0.0625,-0.484375 z m 0,0"
   id="id-8c7d1447-b0b0-4152-aef2-182136199a10-0-1-1-55-0"
   style="fill:#674e8a;fill-opacity:1;stroke:#674e8a;stroke-width:0.188751;stroke-dasharray:none;stroke-opacity:1" />
      </g></g>
  <g
   fill="#000000"
   fill-opacity="1"
   id="id-b532b606-0437-4b1a-b3cc-94adcfeed9fa-7-65-1-9-6"
   transform="translate(-277.383,-135.63)"
   style="fill:#674e8a;fill-opacity:1;stroke:#674e8a;stroke-width:0.188751;stroke-dasharray:none;stroke-opacity:1">
    <g
   transform="translate(287.874,154.566)"
   id="g9-6-7-9-3-1"
   style="fill:#674e8a;fill-opacity:1;stroke:#674e8a;stroke-width:0.188751;stroke-dasharray:none;stroke-opacity:1"><path
   d="M 3.515625,-1.265625 H 3.28125 c -0.015625,0.15625 -0.09375,0.5625 -0.1875,0.625 C 3.046875,-0.59375 2.515625,-0.59375 2.40625,-0.59375 H 1.125 c 0.734375,-0.640625 0.984375,-0.84375 1.390625,-1.171875 0.515625,-0.40625 1,-0.84375 1,-1.5 0,-0.84375 -0.734375,-1.359375 -1.625,-1.359375 -0.859375,0 -1.453125,0.609375 -1.453125,1.25 0,0.34375 0.296875,0.390625 0.375,0.390625 0.15625,0 0.359375,-0.125 0.359375,-0.375 0,-0.125 -0.046875,-0.375 -0.40625,-0.375 C 0.984375,-4.21875 1.453125,-4.375 1.78125,-4.375 c 0.703125,0 1.0625,0.546875 1.0625,1.109375 0,0.609375 -0.4375,1.078125 -0.65625,1.328125 L 0.515625,-0.265625 C 0.4375,-0.203125 0.4375,-0.1875 0.4375,0 h 2.875 z m 0,0"
   id="id-97692c2c-4dcc-460a-a205-50becca6f075-3-5-7-2-2"
   style="fill:#674e8a;fill-opacity:1;stroke:#674e8a;stroke-width:0.188751;stroke-dasharray:none;stroke-opacity:1" />
      </g></g>
  <g
   fill="#000000"
   fill-opacity="1"
   id="id-7470fdb9-40e8-4fa8-b5c2-cdc0f4dbb3e2-6-4-6-8-1"
   transform="translate(-277.383,-135.63)"
   style="fill:#674e8a;fill-opacity:1;stroke:#674e8a;stroke-width:0.188751;stroke-dasharray:none;stroke-opacity:1">
    <g
   transform="translate(297.359,150.61)"
   id="g10-1-12-2-7-4"
   style="fill:#674e8a;fill-opacity:1;stroke:#674e8a;stroke-width:0.188751;stroke-dasharray:none;stroke-opacity:1"><path
   d="m 6.84375,-3.265625 c 0.15625,0 0.34375,0 0.34375,-0.1875 C 7.1875,-3.65625 7,-3.65625 6.859375,-3.65625 h -5.96875 c -0.140625,0 -0.328125,0 -0.328125,0.203125 0,0.1875 0.1875,0.1875 0.328125,0.1875 z m 0.015625,1.9375 c 0.140625,0 0.328125,0 0.328125,-0.203125 0,-0.1875 -0.1875,-0.1875 -0.34375,-0.1875 H 0.890625 c -0.140625,0 -0.328125,0 -0.328125,0.1875 0,0.203125 0.1875,0.203125 0.328125,0.203125 z m 0,0"
   id="id-c7a65182-c1ee-4913-aa47-42afa5911cc2-5-0-9-4-9"
   style="fill:#674e8a;fill-opacity:1;stroke:#674e8a;stroke-width:0.188751;stroke-dasharray:none;stroke-opacity:1" />
      </g></g>
  <g
   fill="#000000"
   fill-opacity="1"
   id="id-9eff05b7-9c3f-4029-acf4-f09f9b8698c3-4-0-5-8-5"
   transform="translate(-277.383,-135.63)"
   style="fill:#674e8a;fill-opacity:1;stroke:#674e8a;stroke-width:0.188751;stroke-dasharray:none;stroke-opacity:1">
    <g
   transform="translate(307.875,150.61)"
   id="g11-2-1-2-1-2"
   style="fill:#674e8a;fill-opacity:1;stroke:#674e8a;stroke-width:0.188751;stroke-dasharray:none;stroke-opacity:1"><path
   d="m 3.953125,-3.78125 c -0.171875,0 -0.296875,0 -0.4375,0.125 -0.171875,0.15625 -0.1875,0.328125 -0.1875,0.390625 0,0.25 0.1875,0.359375 0.375,0.359375 0.28125,0 0.546875,-0.25 0.546875,-0.640625 0,-0.484375 -0.46875,-0.859375 -1.171875,-0.859375 -1.34375,0 -2.671875,1.421875 -2.671875,2.828125 0,0.90625 0.578125,1.6875 1.625,1.6875 1.421875,0 2.25,-1.0625 2.25,-1.171875 0,-0.0625 -0.046875,-0.140625 -0.109375,-0.140625 -0.0625,0 -0.078125,0.03125 -0.140625,0.109375 -0.78125,0.984375 -1.875,0.984375 -1.984375,0.984375 -0.625,0 -0.90625,-0.484375 -0.90625,-1.09375 0,-0.40625 0.203125,-1.375 0.546875,-1.984375 0.3125,-0.578125 0.859375,-1 1.40625,-1 0.328125,0 0.71875,0.125 0.859375,0.40625 z m 0,0"
   id="id-afaa77b6-3c67-4a56-ae9a-7bbea9d1346f-0-4-0-4-3"
   style="fill:#674e8a;fill-opacity:1;stroke:#674e8a;stroke-width:0.188751;stroke-dasharray:none;stroke-opacity:1" />
      </g></g>
  <g
   fill="#000000"
   fill-opacity="1"
   id="id-3dfff08d-5662-4131-b9e9-099649ab50bc-9-6-0-3-4"
   transform="translate(-277.383,-135.63)"
   style="fill:#674e8a;fill-opacity:1;stroke:#674e8a;stroke-width:0.188751;stroke-dasharray:none;stroke-opacity:1">
    <g
   transform="translate(312.187,146.497)"
   id="g12-7-0-3-5-1"
   style="fill:#674e8a;fill-opacity:1;stroke:#674e8a;stroke-width:0.188751;stroke-dasharray:none;stroke-opacity:1"><path
   d="M 3.515625,-1.265625 H 3.28125 c -0.015625,0.15625 -0.09375,0.5625 -0.1875,0.625 C 3.046875,-0.59375 2.515625,-0.59375 2.40625,-0.59375 H 1.125 c 0.734375,-0.640625 0.984375,-0.84375 1.390625,-1.171875 0.515625,-0.40625 1,-0.84375 1,-1.5 0,-0.84375 -0.734375,-1.359375 -1.625,-1.359375 -0.859375,0 -1.453125,0.609375 -1.453125,1.25 0,0.34375 0.296875,0.390625 0.375,0.390625 0.15625,0 0.359375,-0.125 0.359375,-0.375 0,-0.125 -0.046875,-0.375 -0.40625,-0.375 C 0.984375,-4.21875 1.453125,-4.375 1.78125,-4.375 c 0.703125,0 1.0625,0.546875 1.0625,1.109375 0,0.609375 -0.4375,1.078125 -0.65625,1.328125 L 0.515625,-0.265625 C 0.4375,-0.203125 0.4375,-0.1875 0.4375,0 h 2.875 z m 0,0"
   id="id-e4cdd9d2-e2c3-40e7-af2c-b09557e2ddc7-3-7-9-5-5"
   style="fill:#674e8a;fill-opacity:1;stroke:#674e8a;stroke-width:0.188751;stroke-dasharray:none;stroke-opacity:1" />
      </g></g>
  <g
   fill="#000000"
   fill-opacity="1"
   id="id-3d215041-d8a9-4a3b-a9b6-62301f056e7c-7-1-1-2-2"
   transform="translate(-277.383,-135.63)"
   style="fill:#674e8a;fill-opacity:1;stroke:#674e8a;stroke-width:0.188751;stroke-dasharray:none;stroke-opacity:1">
    <g
   transform="translate(317.852,143.87)"
   id="g13-2-7-8-6-3"
   style="fill:#674e8a;fill-opacity:1;stroke:#674e8a;stroke-width:0.188751;stroke-dasharray:none;stroke-opacity:1"><path
   d="m 4.609375,-3.375 c -0.09375,-0.625 -0.5,-1.1875 -1.28125,-1.1875 -0.609375,0 -1.25,0.171875 -2.03125,0.9375 -0.828125,0.828125 -0.890625,1.765625 -0.890625,2.0625 0,0.625 0.4375,1.78125 1.828125,1.78125 2.375,0 3.40625,-3.34375 3.40625,-4.78125 0,-1.578125 -0.921875,-2.578125 -2.15625,-2.578125 -1.4375,0 -1.90625,1.296875 -1.90625,1.578125 0,0.140625 0.09375,0.34375 0.390625,0.34375 0.328125,0 0.53125,-0.296875 0.53125,-0.515625 0,-0.359375 -0.3125,-0.359375 -0.46875,-0.359375 0.4375,-0.734375 1.15625,-0.796875 1.4375,-0.796875 0.734375,0 1.421875,0.515625 1.421875,1.8125 0,0.390625 -0.0625,0.890625 -0.265625,1.703125 z m -2.34375,3.3125 c -1.09375,0 -1.09375,-1.03125 -1.09375,-1.125 0,-0.265625 0.25,-1.65625 0.65625,-2.265625 0.390625,-0.5625 0.890625,-0.890625 1.5,-0.890625 1.09375,0 1.109375,1.125 1.109375,1.328125 0,0.71875 -0.640625,2.953125 -2.171875,2.953125 z m 0,0"
   id="id-7a8bfa6a-7411-4690-93e8-6eb6e4258338-6-7-1-8-1"
   style="fill:#674e8a;fill-opacity:1;stroke:#674e8a;stroke-width:0.188751;stroke-dasharray:none;stroke-opacity:1" />
      </g></g>
  <g
   fill="#000000"
   fill-opacity="1"
   id="id-e7a98e63-423b-4e34-8dfd-e709196b7e08-0-7-9-9-6"
   transform="translate(-277.383,-135.63)"
   style="fill:#674e8a;fill-opacity:1;stroke:#674e8a;stroke-width:0.188751;stroke-dasharray:none;stroke-opacity:1">
    <g
   transform="translate(323.694,140.255)"
   id="g14-1-7-5-2-8"
   style="fill:#674e8a;fill-opacity:1;stroke:#674e8a;stroke-width:0.188751;stroke-dasharray:none;stroke-opacity:1"><path
   d="M 3.515625,-1.265625 H 3.28125 c -0.015625,0.15625 -0.09375,0.5625 -0.1875,0.625 C 3.046875,-0.59375 2.515625,-0.59375 2.40625,-0.59375 H 1.125 c 0.734375,-0.640625 0.984375,-0.84375 1.390625,-1.171875 0.515625,-0.40625 1,-0.84375 1,-1.5 0,-0.84375 -0.734375,-1.359375 -1.625,-1.359375 -0.859375,0 -1.453125,0.609375 -1.453125,1.25 0,0.34375 0.296875,0.390625 0.375,0.390625 0.15625,0 0.359375,-0.125 0.359375,-0.375 0,-0.125 -0.046875,-0.375 -0.40625,-0.375 C 0.984375,-4.21875 1.453125,-4.375 1.78125,-4.375 c 0.703125,0 1.0625,0.546875 1.0625,1.109375 0,0.609375 -0.4375,1.078125 -0.65625,1.328125 L 0.515625,-0.265625 C 0.4375,-0.203125 0.4375,-0.1875 0.4375,0 h 2.875 z m 0,0"
   id="id-0c1e5861-f139-42e5-9345-5699977a1f7a-6-3-3-9-8"
   style="fill:#674e8a;fill-opacity:1;stroke:#674e8a;stroke-width:0.188751;stroke-dasharray:none;stroke-opacity:1" />
      </g></g>
  <g
   fill="#000000"
   fill-opacity="1"
   id="id-77eb3fca-fa26-4081-aa17-bcb8238670d0-5-3-2-59-2"
   transform="translate(-277.383,-135.63)"
   style="fill:#674e8a;fill-opacity:1;stroke:#674e8a;stroke-width:0.188751;stroke-dasharray:none;stroke-opacity:1">
    <g
   transform="translate(328.164,143.87)"
   id="g15-7-5-5-4-7"
   style="fill:#674e8a;fill-opacity:1;stroke:#674e8a;stroke-width:0.188751;stroke-dasharray:none;stroke-opacity:1"><path
   d="M 3.484375,-0.5625 C 3.59375,-0.15625 3.953125,0.109375 4.375,0.109375 4.71875,0.109375 4.953125,-0.125 5.109375,-0.4375 5.28125,-0.796875 5.40625,-1.40625 5.40625,-1.421875 c 0,-0.109375 -0.078125,-0.109375 -0.109375,-0.109375 -0.109375,0 -0.109375,0.046875 -0.140625,0.1875 -0.140625,0.5625 -0.328125,1.234375 -0.75,1.234375 -0.203125,0 -0.3125,-0.125 -0.3125,-0.453125 0,-0.21875 0.125,-0.6875 0.203125,-1.046875 L 4.578125,-2.6875 C 4.609375,-2.828125 4.703125,-3.203125 4.75,-3.359375 4.796875,-3.59375 4.890625,-3.96875 4.890625,-4.03125 c 0,-0.171875 -0.140625,-0.265625 -0.28125,-0.265625 -0.046875,0 -0.3125,0.015625 -0.390625,0.34375 -0.1875,0.734375 -0.625,2.484375 -0.75,3 -0.015625,0.046875 -0.40625,0.84375 -1.140625,0.84375 -0.515625,0 -0.609375,-0.453125 -0.609375,-0.8125 0,-0.5625 0.28125,-1.34375 0.53125,-2.03125 0.125,-0.3125 0.171875,-0.453125 0.171875,-0.640625 0,-0.4375 -0.3125,-0.8125 -0.8125,-0.8125 -0.953125,0 -1.3125,1.453125 -1.3125,1.53125 0,0.109375 0.09375,0.109375 0.109375,0.109375 0.109375,0 0.109375,-0.03125 0.15625,-0.1875 0.25,-0.859375 0.640625,-1.234375 1.015625,-1.234375 0.09375,0 0.25,0.015625 0.25,0.328125 0,0.234375 -0.109375,0.53125 -0.171875,0.671875 -0.375,1 -0.578125,1.609375 -0.578125,2.09375 0,0.953125 0.6875,1.203125 1.21875,1.203125 0.65625,0 1.015625,-0.453125 1.1875,-0.671875 z m 0,0"
   id="id-3893733b-4579-40d5-9200-960cf8229390-5-99-2-5-7"
   style="fill:#674e8a;fill-opacity:1;stroke:#674e8a;stroke-width:0.188751;stroke-dasharray:none;stroke-opacity:1" />
      </g></g>
  <path
   fill="none"
   stroke-width="0.398"
   stroke-linecap="butt"
   stroke-linejoin="miter"
   stroke="#000000"
   stroke-opacity="1"
   stroke-miterlimit="10"
   d="M 40.46875,12.491089 H 56.484375"
   id="id-99117406-346e-4b24-a87b-e241155c4e31-4-8-5-0-1"
   style="fill:#674e8a;fill-opacity:1;stroke:#674e8a;stroke-width:0.188751;stroke-dasharray:none;stroke-opacity:1" />
  <g
   fill="#000000"
   fill-opacity="1"
   id="id-554b0f61-9b65-4f99-9d8d-e162656e61d8-1-1-8-5-2"
   transform="translate(-277.383,-135.63)"
   style="fill:#674e8a;fill-opacity:1;stroke:#674e8a;stroke-width:0.188751;stroke-dasharray:none;stroke-opacity:1">
    <g
   transform="translate(317.856,157.444)"
   id="g16-2-8-6-8-6"
   style="fill:#674e8a;fill-opacity:1;stroke:#674e8a;stroke-width:0.188751;stroke-dasharray:none;stroke-opacity:1"><path
   d="m 4.609375,-3.375 c -0.09375,-0.625 -0.5,-1.1875 -1.28125,-1.1875 -0.609375,0 -1.25,0.171875 -2.03125,0.9375 -0.828125,0.828125 -0.890625,1.765625 -0.890625,2.0625 0,0.625 0.4375,1.78125 1.828125,1.78125 2.375,0 3.40625,-3.34375 3.40625,-4.78125 0,-1.578125 -0.921875,-2.578125 -2.15625,-2.578125 -1.4375,0 -1.90625,1.296875 -1.90625,1.578125 0,0.140625 0.09375,0.34375 0.390625,0.34375 0.328125,0 0.53125,-0.296875 0.53125,-0.515625 0,-0.359375 -0.3125,-0.359375 -0.46875,-0.359375 0.4375,-0.734375 1.15625,-0.796875 1.4375,-0.796875 0.734375,0 1.421875,0.515625 1.421875,1.8125 0,0.390625 -0.0625,0.890625 -0.265625,1.703125 z m -2.34375,3.3125 c -1.09375,0 -1.09375,-1.03125 -1.09375,-1.125 0,-0.265625 0.25,-1.65625 0.65625,-2.265625 0.390625,-0.5625 0.890625,-0.890625 1.5,-0.890625 1.09375,0 1.109375,1.125 1.109375,1.328125 0,0.71875 -0.640625,2.953125 -2.171875,2.953125 z m 0,0"
   id="id-f59c783f-aba5-4280-96b5-863c4bf4c23e-0-2-7-8-0"
   style="fill:#674e8a;fill-opacity:1;stroke:#674e8a;stroke-width:0.188751;stroke-dasharray:none;stroke-opacity:1" />
      </g></g>
  <g
   fill="#000000"
   fill-opacity="1"
   id="id-0d5a4dfe-8b4e-4a5e-8e96-31dda2ec8df2-0-6-7-01-4"
   transform="translate(-277.383,-135.63)"
   style="fill:#674e8a;fill-opacity:1;stroke:#674e8a;stroke-width:0.188751;stroke-dasharray:none;stroke-opacity:1">
    <g
   transform="translate(323.703,157.444)"
   id="g17-1-6-2-3-9"
   style="fill:#674e8a;fill-opacity:1;stroke:#674e8a;stroke-width:0.188751;stroke-dasharray:none;stroke-opacity:1"><path
   d="M 3.328125,-3.015625 C 3.390625,-3.265625 3.625,-4.1875 4.3125,-4.1875 c 0.046875,0 0.296875,0 0.5,0.125 C 4.53125,-4 4.34375,-3.765625 4.34375,-3.515625 c 0,0.15625 0.109375,0.34375 0.375,0.34375 0.21875,0 0.53125,-0.171875 0.53125,-0.578125 0,-0.515625 -0.578125,-0.65625 -0.921875,-0.65625 -0.578125,0 -0.921875,0.53125 -1.046875,0.75 -0.25,-0.65625 -0.78125,-0.75 -1.078125,-0.75 -1.03125,0 -1.609375,1.28125 -1.609375,1.53125 0,0.109375 0.109375,0.109375 0.125,0.109375 0.078125,0 0.109375,-0.03125 0.125,-0.109375 0.34375,-1.0625 1,-1.3125 1.34375,-1.3125 0.1875,0 0.53125,0.09375 0.53125,0.671875 0,0.3125 -0.171875,0.96875 -0.53125,2.375 -0.15625,0.609375 -0.515625,1.03125 -0.953125,1.03125 -0.0625,0 -0.28125,0 -0.5,-0.125 0.25,-0.0625 0.46875,-0.265625 0.46875,-0.546875 0,-0.265625 -0.21875,-0.34375 -0.359375,-0.34375 -0.3125,0 -0.546875,0.25 -0.546875,0.578125 0,0.453125 0.484375,0.65625 0.921875,0.65625 0.671875,0 1.03125,-0.703125 1.046875,-0.75 0.125,0.359375 0.484375,0.75 1.078125,0.75 1.03125,0 1.59375,-1.28125 1.59375,-1.53125 0,-0.109375 -0.078125,-0.109375 -0.109375,-0.109375 -0.09375,0 -0.109375,0.046875 -0.140625,0.109375 -0.328125,1.078125 -1,1.3125 -1.3125,1.3125 -0.390625,0 -0.546875,-0.3125 -0.546875,-0.65625 0,-0.21875 0.046875,-0.4375 0.15625,-0.875 z m 0,0"
   id="id-4b2253c7-a12c-402b-a464-cf7e844f1d44-4-0-2-2-4"
   style="fill:#674e8a;fill-opacity:1;stroke:#674e8a;stroke-width:0.188751;stroke-dasharray:none;stroke-opacity:1" />
      </g></g>
  <g
   fill="#000000"
   fill-opacity="1"
   id="id-8b9c49e5-d152-4b71-8c75-6c177e8e6694-6-3-9-2-6"
   transform="translate(-277.383,-135.63)"
   style="fill:#674e8a;fill-opacity:1;stroke:#674e8a;stroke-width:0.188751;stroke-dasharray:none;stroke-opacity:1">
    <g
   transform="translate(329.393,154.566)"
   id="g18-0-8-4-2-0"
   style="fill:#674e8a;fill-opacity:1;stroke:#674e8a;stroke-width:0.188751;stroke-dasharray:none;stroke-opacity:1"><path
   d="M 3.515625,-1.265625 H 3.28125 c -0.015625,0.15625 -0.09375,0.5625 -0.1875,0.625 C 3.046875,-0.59375 2.515625,-0.59375 2.40625,-0.59375 H 1.125 c 0.734375,-0.640625 0.984375,-0.84375 1.390625,-1.171875 0.515625,-0.40625 1,-0.84375 1,-1.5 0,-0.84375 -0.734375,-1.359375 -1.625,-1.359375 -0.859375,0 -1.453125,0.609375 -1.453125,1.25 0,0.34375 0.296875,0.390625 0.375,0.390625 0.15625,0 0.359375,-0.125 0.359375,-0.375 0,-0.125 -0.046875,-0.375 -0.40625,-0.375 C 0.984375,-4.21875 1.453125,-4.375 1.78125,-4.375 c 0.703125,0 1.0625,0.546875 1.0625,1.109375 0,0.609375 -0.4375,1.078125 -0.65625,1.328125 L 0.515625,-0.265625 C 0.4375,-0.203125 0.4375,-0.1875 0.4375,0 h 2.875 z m 0,0"
   id="id-d41d0058-0cbe-4eb4-8d47-b1c328490928-7-0-1-7-3"
   style="fill:#674e8a;fill-opacity:1;stroke:#674e8a;stroke-width:0.188751;stroke-dasharray:none;stroke-opacity:1" />
      </g></g>
</g><path
       style="fill:#4c3d60;fill-opacity:1;stroke:#4c3d60;stroke-width:0.00577009;stroke-linecap:round;stroke-linejoin:bevel;stroke-dasharray:none;stroke-opacity:1"
       d="m 61.400359,39.191035 c -0.005,-0.003 -0.0132,-0.009 -0.0175,-0.0147 -0.0167,-0.0219 -0.0399,0.0458 0.30289,-0.88597 0.17219,-0.46806 0.31509,-0.85496 0.31758,-0.85976 0.008,-0.0164 0.0325,-0.0263 0.0514,-0.0212 0.0257,0.007 0.003,-0.0518 0.34444,0.87785 0.17301,0.47053 0.31459,0.85859 0.31459,0.86235 0,0.0127 -0.0127,0.0328 -0.0251,0.0399 -0.0198,0.0115 -0.0337,0.008 -0.0679,-0.0156 -0.13886,-0.0968 -0.29462,-0.15501 -0.46649,-0.17435 -0.0546,-0.006 -0.16097,-0.006 -0.21564,-1e-5 -0.1657,0.0186 -0.32393,0.0755 -0.45701,0.16432 -0.019,0.0128 -0.0387,0.0252 -0.0434,0.0277 -0.0111,0.006 -0.0257,0.006 -0.0379,-5.3e-4 z"
       id="path97-6" /></g></svg>
